<?xml version="1.0" standalone="no"?>
<!DOCTYPE svg PUBLIC "-//W3C//DTD SVG 1.0//EN" "http://www.w3.org/TR/2001/REC-SVG-20010904/DTD/svg10.dtd">
<svg xmlns="http://www.w3.org/2000/svg" xmlns:xlink="http://www.w3.org/1999/xlink" id="body_1" width="72" height="72">

<g transform="matrix(0.10285714 0 0 0.10285714 0 0)">
	<g transform="matrix(0.1 0 -0 -0.1 0 700)">
        <path d="M5663 5889C 5582 5880 5539 5857 5468 5788C 5422 5743 5396 5708 5368 5650C 5354 5622 5351 5585 5350 5455C 5349 5336 5346 5289 5335 5270C 5315 5235 5316 5068 5336 4968C 5356 4869 5398 4788 5458 4731C 5507 4685 5591 4642 5650 4631C 5689 4624 5696 4609 5685 4554C 5680 4526 5673 4518 5649 4513C 5614 4506 5602 4491 5621 4478C 5637 4468 5762 4474 5784 4487C 5799 4495 5877 4583 5905 4623C 5920 4645 5924 4645 6268 4646C 6623 4647 6693 4653 6762 4688C 6856 4736 6910 4801 6940 4901C 6958 4959 6960 4997 6960 5281C 6960 5625 6958 5637 6902 5720C 6846 5802 6759 5867 6680 5883C 6622 5895 5758 5901 5663 5889zM6048 5578C 6088 5535 6077 5438 6005 5172C 5986 5102 5990 5080 6019 5080C 6057 5080 6075 5126 6075 5225C 6075 5313 6076 5315 6100 5318C 6113 5320 6141 5317 6161 5311C 6192 5302 6205 5303 6245 5320C 6271 5331 6300 5340 6309 5340C 6324 5340 6326 5347 6322 5388C 6319 5423 6323 5448 6339 5482C 6371 5548 6400 5572 6457 5577C 6517 5582 6555 5560 6599 5495C 6634 5443 6636 5427 6616 5378C 6601 5343 6580 5258 6555 5126C 6539 5044 6520 5010 6490 5010C 6463 5010 6460 5043 6481 5122C 6492 5162 6502 5215 6503 5240L6503 5240L6505 5285L6445 5288C 6413 5290 6379 5296 6372 5303C 6361 5312 6355 5310 6344 5295C 6336 5285 6330 5273 6330 5270C 6330 5263 6243 5217 6199 5201C 6180 5194 6171 5182 6166 5157C 6153 5088 6094 4999 6043 4972C 6031 4965 6005 4960 5985 4960C 5957 4960 5947 4965 5938 4985C 5924 5015 5895 5018 5880 4990C 5874 4979 5851 4961 5829 4950C 5783 4926 5717 4930 5667 4959C 5630 4980 5625 5006 5639 5116C 5653 5236 5654 5229 5625 5240C 5611 5245 5595 5262 5589 5277C 5576 5311 5594 5331 5647 5339L5647 5339L5685 5345L5690 5415C 5696 5496 5702 5510 5735 5510C 5766 5510 5794 5460 5786 5418C 5778 5378 5800 5373 5857 5401C 5894 5420 5906 5432 5911 5455C 5924 5513 5951 5561 5983 5580C 6023 5605 6022 5605 6048 5578z" stroke="none" fill="#000000" fill-rule="nonzero" />
        <path d="M6416 5469C 6388 5439 6381 5424 6386 5407C 6401 5358 6431 5347 6474 5375C 6505 5395 6528 5473 6510 5495C 6488 5521 6454 5512 6416 5469z" stroke="none" fill="#000000" fill-rule="nonzero" />
        <path d="M5980 5388C 5980 5369 5982 5368 5990 5380C 6003 5399 6003 5410 5990 5410C 5985 5410 5980 5400 5980 5388z" stroke="none" fill="#000000" fill-rule="nonzero" />
        <path d="M5789 5296C 5760 5276 5749 5259 5730 5199C 5696 5091 5694 5059 5720 5033C 5731 5020 5748 5010 5756 5010C 5764 5010 5795 5033 5824 5060C 5853 5088 5882 5110 5887 5110C 5893 5110 5900 5116 5903 5124C 5911 5143 5899 5260 5889 5266C 5884 5269 5880 5282 5880 5296C 5880 5316 5875 5320 5852 5320C 5837 5320 5809 5309 5789 5296z" stroke="none" fill="#000000" fill-rule="nonzero" />
        <path d="M2860 5636C 2743 5608 2693 5592 2660 5573C 2646 5565 2620 5552 2601 5544C 2530 5512 2315 5317 2283 5256C 2276 5243 2264 5230 2257 5227C 2242 5221 2150 5069 2150 5050C 2150 5043 2143 5026 2135 5012C 2126 4997 2112 4963 2102 4937C 2082 4881 2101 4891 1825 4795C 1726 4761 1587 4711 1515 4684C 1341 4618 1343 4626 1441 4400C 1456 4364 1478 4304 1490 4265C 1501 4227 1519 4168 1530 4135C 1561 4035 1563 4006 1540 3980C 1529 3967 1519 3945 1519 3931C 1518 3917 1516 3898 1515 3890C 1514 3882 1512 3870 1511 3864C 1509 3849 1445 3823 1393 3815C 1356 3809 1348 3812 1328 3833C 1294 3871 1172 3920 1112 3920C 1049 3920 967 3873 911 3806C 880 3767 871 3746 861 3689C 853 3641 853 3613 860 3600C 865 3590 870 3567 870 3550C 870 3502 966 3405 1033 3385C 1097 3366 1153 3366 1217 3385C 1266 3400 1279 3411 1398 3544C 1407 3554 1424 3566 1435 3571C 1446 3577 1466 3588 1480 3596C 1519 3619 1569 3605 1613 3559C 1652 3519 1684 3452 1722 3330C 1746 3252 1798 3113 1812 3085C 1818 3074 1829 3045 1836 3020C 1850 2970 1878 2893 1903 2840C 1911 2821 1926 2783 1935 2756C 1965 2663 1955 2668 2098 2670C 2281 2672 2290 2672 2290 2657C 2290 2633 2210 2591 2151 2585C 2120 2582 2084 2574 2070 2567L2070 2567L2045 2554L2047 2360C 2049 2124 2056 1970 2070 1830C 2075 1772 2082 1605 2085 1459L2085 1459L2089 1192L2064 1186C 2043 1180 2040 1177 2050 1165C 2059 1155 2083 1150 2127 1150C 2213 1150 2260 1126 2288 1067C 2306 1029 2316 1020 2372 998C 2449 966 2594 917 2675 895C 2708 886 2759 872 2787 864C 2838 850 2992 828 2998 835C 3006 842 2967 936 2940 975C 2910 1018 2863 1044 2834 1033C 2826 1030 2813 1012 2805 993C 2786 949 2766 955 2762 1005C 2759 1040 2767 1062 2817 1162C 2829 1187 2835 1250 2825 1250C 2822 1250 2792 1228 2758 1200C 2724 1173 2693 1150 2689 1150C 2685 1150 2678 1159 2675 1171C 2664 1204 2599 1312 2571 1344C 2523 1398 2469 1430 2429 1430C 2408 1430 2385 1437 2377 1444C 2343 1478 2347 1669 2384 1830C 2392 1866 2406 1946 2415 2009C 2431 2130 2427 2150 2388 2150C 2362 2150 2330 2168 2330 2183C 2330 2190 2319 2218 2305 2245C 2292 2273 2280 2305 2280 2318C 2280 2351 2318 2346 2350 2308C 2381 2271 2405 2277 2395 2318C 2388 2346 2361 2377 2317 2405C 2299 2417 2290 2430 2292 2443C 2296 2469 2373 2515 2448 2536C 2501 2551 2508 2551 2551 2533C 2602 2513 2680 2448 2680 2426C 2680 2418 2685 2408 2690 2405C 2704 2396 2703 2426 2688 2450C 2681 2460 2679 2472 2683 2476C 2694 2487 2734 2454 2751 2419C 2793 2332 2810 2290 2829 2235C 2840 2202 2863 2144 2881 2105C 2940 1977 2962 1960 3013 2000L3013 2000L3038 2020L3053 1997C 3069 1975 3069 1975 3069 2007C 3070 2024 3066 2041 3061 2044C 3057 2047 3050 2069 3046 2092C 3042 2115 3036 2139 3031 2145C 3027 2150 3016 2178 3006 2205C 2974 2297 2882 2489 2832 2570C 2819 2590 2814 2608 2819 2613C 2824 2618 2939 2623 3073 2624C 3309 2625 3319 2626 3342 2646C 3374 2676 3494 2736 3559 2754C 3638 2777 3751 2775 3823 2749L3823 2749L3883 2728L3900 2750C 3910 2763 3925 2771 3936 2768C 3965 2763 3967 2705 3940 2668C 3913 2632 3921 2619 3963 2631C 3980 2636 4125 2643 4283 2647C 4510 2652 4573 2651 4580 2641C 4584 2634 4585 2608 4582 2583C 4577 2535 4587 2521 4625 2520C 4659 2519 4694 2479 4735 2395C 4757 2351 4780 2309 4787 2302C 4794 2295 4800 2280 4800 2271C 4800 2261 4807 2247 4815 2240C 4823 2233 4830 2222 4830 2216C 4830 2209 4841 2180 4855 2152C 4869 2123 4880 2097 4880 2092C 4880 2088 4889 2068 4900 2048C 4921 2008 4918 1980 4891 1980C 4882 1980 4864 1974 4851 1967C 4828 1955 4828 1952 4826 1795C 4824 1707 4820 1627 4816 1618C 4806 1596 4779 1586 4768 1602C 4763 1609 4761 1690 4764 1782L4764 1782L4769 1950L4742 1957C 4710 1965 3940 1951 3885 1942C 3837 1933 3836 1919 3882 1905C 3927 1891 4030 1823 4037 1802C 4040 1793 4048 1778 4055 1770C 4102 1710 4126 1544 4095 1490C 4087 1476 4081 1456 4080 1446C 4080 1436 4059 1402 4033 1372C 3988 1320 3974 1311 3855 1260C 3826 1248 3826 1247 3847 1239C 3859 1235 3895 1235 3927 1240C 3959 1246 4013 1250 4048 1250C 4083 1250 4153 1255 4203 1260C 4254 1266 4358 1274 4435 1278L4435 1278L4575 1285L4578 1323C 4580 1343 4585 1360 4590 1360C 4609 1360 4640 1306 4640 1273C 4640 1229 4619 1221 4475 1209C 4415 1205 4326 1196 4278 1191C 4230 1186 4109 1178 4008 1175C 3515 1157 3457 1150 3505 1110C 3513 1103 3520 1089 3520 1079C 3520 1056 3532 1055 3571 1075C 3616 1099 3825 1120 4020 1120C 4116 1120 4267 1127 4355 1135C 4443 1143 4558 1150 4611 1150C 4697 1150 4709 1152 4727 1172C 4739 1185 4751 1209 4754 1225C 4762 1260 4806 1318 4817 1307C 4821 1303 4824 1284 4823 1265C 4822 1246 4825 1230 4829 1230C 4832 1230 4852 1244 4872 1260C 4907 1289 4909 1294 4916 1370C 4919 1414 4926 1450 4931 1450C 4935 1450 4949 1428 4962 1400C 4975 1373 4990 1350 4996 1350C 5009 1350 5157 1471 5164 1488C 5167 1495 5141 1528 5106 1563C 5062 1606 5040 1636 5035 1660C 5031 1679 5024 1700 5020 1705C 5016 1711 5003 1753 4991 1800C 4978 1847 4965 1899 4960 1915C 4955 1932 4949 1965 4945 1990C 4942 2015 4935 2044 4930 2055C 4926 2066 4917 2102 4910 2135C 4895 2210 4881 2257 4864 2292C 4856 2306 4850 2327 4850 2337C 4850 2347 4841 2363 4830 2373C 4819 2382 4810 2397 4810 2406C 4810 2415 4799 2436 4785 2452C 4721 2527 4802 2533 4956 2464C 4998 2446 5037 2393 5045 2344C 5049 2323 5056 2296 5061 2285C 5066 2274 5074 2234 5079 2195C 5084 2157 5096 2080 5105 2025C 5114 1970 5128 1880 5135 1825C 5156 1669 5163 1646 5204 1605C 5238 1571 5243 1569 5258 1583C 5272 1598 5270 1603 5237 1640C 5216 1662 5200 1689 5200 1700C 5200 1710 5195 1729 5190 1742C 5181 1762 5173 1817 5141 2070C 5137 2106 5128 2158 5122 2185C 5116 2213 5106 2262 5099 2295C 5093 2328 5084 2369 5079 2386C 5068 2422 5004 2500 4985 2500C 4978 2500 4967 2506 4961 2514C 4946 2532 4851 2550 4733 2556C 4679 2559 4633 2563 4629 2566C 4625 2568 4625 2585 4630 2603C 4638 2642 4628 2675 4603 2688C 4593 2693 4504 2698 4406 2698C 4271 2699 4225 2702 4219 2712C 4212 2722 4208 2722 4198 2712C 4192 2706 4172 2700 4155 2700C 4119 2700 4067 2748 4056 2790C 4053 2804 4032 2838 4011 2865C 3989 2893 3964 2927 3955 2943C 3940 2969 3940 2970 3967 2981C 3982 2987 4010 2998 4028 3006C 4046 3014 4076 3020 4095 3020C 4113 3020 4131 3024 4134 3029C 4138 3034 4166 3046 4198 3055C 4229 3064 4275 3079 4299 3087C 4323 3096 4357 3106 4374 3111C 4391 3115 4437 3131 4475 3145C 4550 3173 4555 3175 4700 3214C 4752 3228 4820 3249 4850 3261C 4880 3272 4923 3287 4945 3293C 4967 3298 4999 3309 5017 3316C 5034 3324 5055 3330 5064 3330C 5089 3330 5131 3361 5141 3387C 5150 3412 5135 3518 5119 3535C 5114 3540 5110 3555 5110 3569C 5110 3582 5105 3608 5098 3626C 5090 3649 5089 3671 5096 3702C 5105 3739 5102 3758 5074 3845C 5056 3900 5041 3959 5041 3977C 5040 3994 5036 4012 5030 4015C 5025 4018 5020 4033 5019 4048C 5019 4063 5004 4120 4986 4175C 4955 4266 4954 4277 4966 4302C 4981 4331 5026 4355 5099 4371C 5123 4376 5156 4392 5172 4405C 5188 4419 5206 4430 5211 4430C 5226 4430 5269 4506 5279 4551C 5284 4574 5286 4607 5283 4626C 5278 4655 5274 4659 5255 4654C 5242 4651 5229 4653 5226 4659C 5208 4687 5126 4650 5074 4590L5074 4590L5052 4565L5038 4600C 5014 4657 4973 4698 4937 4702C 4911 4704 4906 4709 4908 4725C 4913 4755 4956 4785 5029 4809C 5087 4829 5095 4829 5116 4815C 5129 4807 5146 4800 5154 4800C 5162 4800 5189 4787 5213 4770C 5270 4732 5276 4732 5248 4771C 5199 4838 5103 4871 5033 4847C 5007 4838 4986 4836 4976 4842C 4965 4848 4958 4847 4954 4836C 4948 4821 4830 4735 4826 4742C 4818 4756 4800 4820 4800 4836C 4800 4846 4794 4867 4786 4881C 4779 4895 4770 4924 4766 4945C 4762 4966 4752 4993 4745 5004C 4737 5016 4722 5070 4711 5124C 4701 5178 4687 5227 4681 5233C 4675 5239 4670 5256 4670 5271C 4670 5286 4663 5311 4655 5326C 4647 5342 4640 5365 4640 5377C 4640 5389 4630 5410 4618 5424C 4596 5449 4594 5450 4555 5435C 4533 5427 4497 5421 4475 5420C 4453 5420 4419 5415 4400 5409C 4320 5385 4215 5360 4196 5360C 4184 5360 4162 5353 4145 5344C 4128 5335 4081 5325 4038 5322C 3990 5319 3956 5312 3949 5304C 3943 5296 3920 5290 3899 5290C 3867 5290 3850 5299 3793 5348C 3664 5458 3585 5516 3540 5534C 3515 5544 3486 5560 3475 5570C 3464 5580 3410 5603 3355 5621C 3263 5651 3243 5654 3105 5656C 2976 5659 2942 5656 2860 5636zM3184 5511C 3201 5500 3251 5485 3295 5477C 3435 5450 3473 5439 3548 5404C 3588 5384 3626 5370 3631 5372C 3636 5374 3627 5390 3610 5408C 3572 5450 3572 5462 3610 5449C 3627 5443 3640 5434 3640 5429C 3640 5424 3646 5420 3653 5420C 3660 5420 3695 5393 3730 5360C 3765 5327 3811 5288 3833 5273L3833 5273L3872 5246L3958 5268C 4006 5280 4056 5290 4070 5290C 4084 5290 4115 5296 4140 5304C 4165 5312 4212 5323 4245 5328C 4278 5334 4332 5345 4365 5355C 4398 5364 4450 5376 4480 5382C 4510 5388 4540 5397 4547 5402C 4565 5416 4599 5394 4606 5362C 4609 5347 4615 5326 4620 5315C 4634 5283 4638 5215 4628 5197C 4613 5169 4584 5159 4555 5170C 4533 5178 4529 5177 4532 5164C 4534 5155 4547 5138 4562 5127L4562 5127L4588 5107L4624 5129L4659 5151L4670 5109C 4676 5086 4685 5060 4690 5051C 4694 5042 4706 5002 4715 4961C 4724 4920 4738 4877 4746 4866C 4754 4855 4760 4832 4760 4815C 4760 4799 4766 4765 4774 4740C 4820 4599 4920 4245 4920 4226C 4920 4218 4927 4199 4935 4184C 4943 4168 4950 4148 4950 4138C 4950 4129 4964 4080 4980 4030C 4997 3980 5010 3929 5010 3919C 5010 3908 5016 3887 5024 3872C 5032 3857 5041 3820 5045 3789L5045 3789L5052 3732L4999 3715C 4969 3706 4932 3692 4915 3685C 4883 3671 4794 3644 4748 3635C 4732 3632 4720 3623 4720 3615C 4720 3603 4729 3601 4763 3606C 4786 3610 4813 3617 4822 3621C 4851 3636 4878 3631 4885 3609C 4889 3597 4887 3583 4881 3577C 4864 3560 4868 3539 4892 3513C 4919 3484 4963 3483 4990 3510C 5024 3544 5013 3580 4976 3555C 4946 3534 4921 3537 4911 3563C 4898 3596 4915 3620 4953 3620C 4983 3621 4984 3621 4966 3635C 4938 3656 4958 3672 5005 3668C 5040 3665 5044 3662 5056 3620C 5084 3528 5101 3444 5095 3423C 5089 3398 5040 3372 4975 3359C 4953 3355 4874 3331 4800 3307C 4726 3282 4638 3255 4605 3245C 4572 3236 4529 3222 4510 3215C 4491 3207 4448 3194 4415 3184C 4382 3175 4341 3162 4324 3155C 4306 3147 4275 3138 4254 3135C 4232 3131 4206 3125 4195 3120C 4171 3110 4103 3092 4035 3078C 4008 3073 3976 3063 3965 3057C 3954 3051 3929 3043 3910 3039C 3842 3024 3789 3010 3772 3001C 3754 2992 3694 2975 3620 2959C 3595 2954 3566 2944 3555 2938C 3544 2932 3522 2923 3505 2919C 3489 2915 3462 2907 3445 2902C 3429 2896 3390 2885 3360 2877C 3330 2869 3260 2848 3205 2832C 3150 2815 3089 2798 3070 2794C 3051 2791 3029 2784 3020 2779C 2994 2765 2786 2700 2767 2700C 2747 2700 2710 2755 2710 2785C 2710 2796 2704 2817 2696 2832C 2688 2847 2679 2874 2675 2892C 2672 2910 2662 2940 2653 2959C 2641 2986 2640 2998 2649 3012C 2658 3027 2656 3036 2640 3058C 2629 3073 2617 3108 2614 3135C 2610 3163 2601 3195 2594 3207C 2586 3219 2580 3237 2580 3247C 2580 3257 2574 3285 2566 3310C 2558 3335 2545 3378 2536 3406C 2527 3435 2520 3467 2520 3478C 2520 3489 2515 3511 2508 3527C 2496 3555 2481 3612 2460 3705C 2454 3733 2442 3780 2434 3810C 2425 3840 2412 3888 2405 3915C 2397 3943 2384 3991 2376 4023C 2367 4054 2353 4105 2345 4135C 2337 4165 2324 4214 2315 4243C 2307 4271 2293 4322 2284 4355C 2275 4388 2262 4437 2254 4464C 2246 4490 2240 4521 2240 4532C 2240 4549 2202 4677 2193 4689C 2191 4692 2184 4685 2177 4675C 2165 4659 2160 4659 2134 4671C 2083 4696 2095 4757 2148 4743C 2173 4737 2173 4738 2166 4781C 2150 4877 2148 4873 2220 4887C 2256 4893 2317 4906 2355 4914C 2394 4922 2450 4934 2480 4941C 2510 4947 2552 4959 2573 4966C 2593 4974 2624 4980 2641 4980C 2658 4980 2695 4986 2723 4994C 2752 5001 2811 5015 2855 5024C 2973 5049 3054 5066 3160 5090C 3212 5101 3275 5115 3300 5120C 3468 5155 3493 5163 3526 5192C 3545 5209 3560 5227 3560 5234C 3560 5248 3488 5299 3435 5323C 3346 5364 3248 5390 3115 5410C 3019 5424 2988 5438 2992 5464C 3000 5520 3120 5550 3184 5511zM2534 5222C 2537 5217 2518 5184 2491 5149C 2450 5093 2414 5026 2396 4968C 2392 4955 2380 4950 2355 4950C 2323 4950 2320 4952 2320 4980C 2320 5033 2385 5143 2448 5197C 2483 5228 2523 5239 2534 5222zM2130 4564C 2141 4538 2150 4510 2150 4502C 2150 4493 2156 4468 2164 4445C 2177 4406 2196 4341 2226 4235C 2233 4208 2251 4147 2265 4100C 2309 3959 2357 3787 2364 3750C 2368 3731 2377 3699 2384 3680C 2398 3645 2416 3585 2445 3480C 2453 3450 2475 3371 2495 3306C 2521 3219 2527 3184 2519 3174C 2507 3160 2449 3163 2345 3182C 2263 3197 2240 3214 2240 3256C 2240 3274 2234 3307 2226 3327C 2218 3348 2204 3392 2195 3425C 2175 3494 2154 3563 2111 3705C 2094 3760 2080 3811 2080 3819C 2080 3826 2069 3864 2056 3903C 2030 3982 2000 4082 1975 4175C 1954 4252 1898 4427 1890 4440C 1882 4452 1859 4447 1700 4399C 1569 4359 1530 4353 1530 4371C 1531 4390 1564 4412 1635 4440C 1668 4453 1699 4468 1705 4472C 1710 4476 1720 4480 1728 4480C 1735 4480 1760 4488 1783 4499C 1806 4509 1866 4532 1915 4550C 1965 4568 2014 4586 2025 4591C 2045 4599 2075 4607 2097 4609C 2104 4609 2118 4589 2130 4564zM1773 4041C 1799 4031 1851 3940 1876 3861C 1884 3836 1894 3771 1897 3717C 1903 3619 1903 3619 1874 3589C 1840 3553 1799 3530 1771 3530C 1753 3530 1751 3534 1758 3563C 1762 3580 1765 3638 1764 3690C 1763 3807 1730 3906 1675 3960C 1635 3999 1630 4027 1663 4034C 1718 4046 1726 4048 1737 4049C 1743 4049 1760 4046 1773 4041zM1215 3831C 1284 3799 1330 3730 1330 3658C 1330 3596 1036 3586 940 3645C 935 3648 939 3665 950 3683C 961 3701 970 3729 970 3746C 970 3827 1115 3877 1215 3831zM1569 3756C 1578 3746 1575 3739 1558 3728C 1510 3698 1444 3671 1410 3668C 1377 3665 1375 3667 1375 3695C 1375 3720 1382 3728 1420 3748C 1471 3773 1551 3778 1569 3756zM2208 2150C 2210 2136 2205 2123 2196 2118C 2176 2107 2176 2081 2196 2059C 2216 2037 2207 2020 2175 2020C 2145 2020 2134 2052 2145 2108C 2157 2172 2201 2202 2208 2150zM2282 2132C 2304 2085 2291 2020 2260 2020C 2229 2020 2214 2086 2234 2133C 2242 2153 2253 2170 2257 2170C 2261 2170 2273 2153 2282 2132zM4801 1467C 4822 1451 4832 1386 4816 1365C 4809 1355 4795 1349 4784 1352C 4768 1355 4765 1365 4762 1418C 4759 1483 4767 1493 4801 1467zM2523 1341C 2561 1307 2614 1212 2609 1185C 2607 1175 2598 1162 2588 1157C 2564 1141 2546 1160 2520 1228C 2508 1259 2490 1301 2479 1321C 2469 1341 2460 1360 2460 1364C 2460 1379 2492 1367 2523 1341zM2506 1085C 2525 1025 2518 1003 2482 1014C 2468 1019 2460 1033 2456 1064C 2442 1153 2480 1169 2506 1085z" stroke="none" fill="#000000" fill-rule="nonzero" />
        <path d="M4213 5093C 4206 5091 4200 5084 4200 5079C 4200 5067 4251 5068 4270 5080C 4283 5088 4283 5090 4268 5090C 4259 5090 4246 5092 4238 5094C 4231 5097 4219 5096 4213 5093z" stroke="none" fill="#000000" fill-rule="nonzero" />
        <path d="M4095 5060C 4092 5054 4095 5047 4104 5044C 4127 5035 4173 5044 4178 5058C 4183 5073 4104 5075 4095 5060z" stroke="none" fill="#000000" fill-rule="nonzero" />
        <path d="M4278 5041C 4251 5037 4225 5029 4218 5022C 4211 5015 4196 5010 4183 5010C 4154 5010 4083 4982 4046 4956C 4003 4925 3920 4844 3920 4833C 3920 4828 3915 4819 3909 4813C 3880 4784 3850 4683 3844 4591C 3833 4406 3885 4264 4012 4137C 4097 4052 4135 4031 4254 4005C 4328 3988 4336 3988 4408 4005C 4449 4015 4502 4034 4525 4047C 4658 4121 4733 4292 4729 4515C 4728 4589 4722 4640 4714 4656C 4706 4671 4700 4687 4700 4693C 4700 4711 4627 4813 4590 4848C 4571 4865 4545 4883 4533 4886C 4520 4889 4510 4895 4510 4899C 4510 4912 4406 4948 4355 4953C 4291 4960 4196 4944 4144 4920C 4106 4901 4010 4803 4010 4782C 4010 4777 4003 4767 3995 4760C 3987 4753 3980 4744 3980 4739C 3980 4726 4014 4728 4027 4741C 4033 4747 4065 4753 4097 4754C 4189 4758 4290 4703 4290 4648C 4290 4618 4255 4610 4120 4610C 3992 4610 3989 4611 3963 4636C 3938 4661 3936 4662 3923 4644C 3916 4634 3910 4622 3910 4617C 3910 4613 3906 4612 3900 4615C 3885 4624 3888 4681 3905 4710C 3913 4724 3919 4745 3920 4757C 3920 4794 3985 4880 4040 4916C 4068 4935 4095 4950 4100 4950C 4104 4950 4113 4956 4119 4964C 4125 4972 4151 4981 4175 4984C 4200 4988 4222 4995 4225 5001C 4229 5006 4244 5010 4259 5010C 4306 5010 4351 5022 4347 5033C 4343 5047 4333 5048 4278 5041zM4619 4741C 4632 4723 4640 4696 4640 4673C 4640 4640 4636 4631 4615 4622C 4601 4615 4581 4610 4571 4610C 4547 4610 4538 4644 4556 4667C 4563 4677 4570 4704 4570 4728C 4570 4779 4589 4784 4619 4741z" stroke="none" fill="#000000" fill-rule="nonzero" />
        <path d="M3824 4857C 3812 4845 3800 4825 3796 4813C 3792 4800 3785 4790 3781 4790C 3771 4790 3736 4696 3719 4629C 3706 4572 3730 4344 3758 4265C 3775 4215 3821 4128 3846 4100C 3908 4028 3988 3960 4012 3960C 4019 3960 4037 3953 4053 3946C 4122 3909 4348 3877 4380 3899C 4403 3915 4387 3921 4280 3936C 4170 3951 4076 3990 3996 4053C 3945 4092 3940 4099 3884 4183C 3749 4388 3737 4634 3851 4852C 3865 4878 3847 4881 3824 4857z" stroke="none" fill="#000000" fill-rule="nonzero" />
        <path d="M2395 4810C 2391 4804 2402 4800 2422 4800C 2447 4800 2451 4803 2440 4810C 2421 4823 2403 4823 2395 4810z" stroke="none" fill="#000000" fill-rule="nonzero" />
        <path d="M3000 4808C 2986 4802 2960 4795 2941 4791C 2922 4788 2905 4779 2902 4772C 2897 4755 2951 4756 2976 4775C 2987 4783 3018 4789 3051 4790C 3082 4790 3122 4793 3141 4797C 3169 4802 3171 4804 3155 4811C 3126 4822 3029 4820 3000 4808z" stroke="none" fill="#000000" fill-rule="nonzero" />
        <path d="M2462 4774C 2463 4765 2471 4755 2478 4752C 2487 4749 2491 4754 2488 4766C 2487 4775 2479 4785 2472 4788C 2463 4791 2459 4786 2462 4774z" stroke="none" fill="#000000" fill-rule="nonzero" />
        <path d="M3024 4745C 3014 4737 2995 4730 2983 4730C 2954 4730 2875 4687 2823 4644C 2727 4564 2661 4423 2652 4280C 2638 4054 2804 3790 3003 3720C 3123 3678 3291 3684 3385 3735C 3460 3775 3559 3894 3576 3966C 3580 3982 3586 4000 3590 4005C 3594 4011 3603 4060 3609 4115C 3620 4214 3616 4258 3584 4395C 3573 4444 3490 4560 3443 4593C 3419 4610 3400 4627 3400 4632C 3400 4636 3387 4640 3372 4640C 3357 4640 3340 4644 3335 4649C 3324 4659 3230 4680 3161 4688C 3105 4694 3009 4666 2948 4626C 2922 4609 2879 4565 2851 4528C 2781 4436 2783 4424 2859 4461C 2907 4484 2963 4482 3053 4453C 3091 4440 3105 4430 3120 4400C 3152 4337 3141 4331 2963 4328C 2879 4327 2807 4329 2803 4333C 2800 4337 2793 4359 2790 4383L2790 4383L2783 4425L2775 4394C 2768 4364 2725 4331 2712 4345C 2709 4348 2712 4374 2719 4403C 2753 4539 2829 4639 2927 4678C 2959 4691 3000 4708 3018 4716C 3038 4725 3085 4730 3140 4730C 3213 4730 3230 4733 3230 4745C 3230 4766 3053 4767 3024 4745zM3501 4450C 3537 4383 3520 4334 3460 4328C 3430 4325 3425 4328 3422 4347C 3420 4359 3426 4380 3435 4394C 3446 4411 3450 4429 3446 4445C 3432 4501 3472 4505 3501 4450z" stroke="none" fill="#000000" fill-rule="nonzero" />
        <path d="M2356 4713C 2363 4680 2395 4650 2422 4650C 2433 4650 2455 4663 2471 4679C 2517 4725 2504 4762 2456 4725C 2431 4706 2406 4706 2390 4725C 2369 4751 2349 4744 2356 4713z" stroke="none" fill="#000000" fill-rule="nonzero" />
        <path d="M3285 4710C 3288 4705 3298 4700 3306 4700C 3314 4700 3320 4705 3320 4710C 3320 4716 3311 4720 3299 4720C 3288 4720 3282 4716 3285 4710z" stroke="none" fill="#000000" fill-rule="nonzero" />
        <path d="M2680 4620C 2680 4614 2662 4593 2640 4573C 2599 4535 2551 4447 2531 4375C 2525 4353 2520 4283 2520 4220C 2520 4130 2524 4092 2540 4047C 2551 4016 2560 3984 2560 3975C 2560 3958 2569 3940 2619 3860C 2695 3736 2824 3637 2943 3609C 2963 3604 2999 3596 3023 3590C 3074 3579 3247 3578 3275 3590C 3294 3597 3293 3598 3270 3603C 3256 3606 3220 3611 3190 3614C 3119 3619 3023 3639 2985 3656C 2886 3699 2859 3714 2813 3753C 2690 3858 2641 3945 2603 4130C 2581 4237 2576 4315 2590 4368C 2605 4429 2680 4600 2691 4600C 2696 4600 2700 4607 2700 4615C 2700 4623 2696 4630 2690 4630C 2685 4630 2680 4625 2680 4620z" stroke="none" fill="#000000" fill-rule="nonzero" />
        <path d="M4827 4033C 4814 4021 4820 4010 4839 4010C 4867 4010 4891 4021 4884 4031C 4878 4041 4836 4043 4827 4033z" stroke="none" fill="#000000" fill-rule="nonzero" />
        <path d="M4880 3950C 4872 3945 4855 3940 4842 3940C 4824 3940 4819 3935 4822 3918C 4824 3899 4832 3894 4862 3892C 4894 3889 4901 3893 4914 3918C 4934 3957 4917 3974 4880 3950z" stroke="none" fill="#000000" fill-rule="nonzero" />
        <path d="M4448 3933C 4455 3930 4464 3931 4467 3934C 4471 3937 4465 3940 4454 3939C 4443 3939 4440 3936 4448 3933z" stroke="none" fill="#000000" fill-rule="nonzero" />
        <path d="M4645 3603C 4634 3600 4621 3594 4615 3590C 4610 3586 4588 3580 4568 3576C 4547 3572 4528 3565 4525 3560C 4515 3544 4587 3549 4604 3565C 4612 3573 4632 3580 4647 3580C 4663 3580 4685 3587 4696 3595C 4714 3609 4714 3609 4690 3609C 4676 3608 4656 3605 4645 3603z" stroke="none" fill="#000000" fill-rule="nonzero" />
        <path d="M4420 3530C 4420 3517 4470 3517 4490 3530C 4501 3537 4494 3540 4463 3540C 4439 3540 4420 3536 4420 3530z" stroke="none" fill="#000000" fill-rule="nonzero" />
        <path d="M4327 3513C 4301 3506 4313 3485 4341 3488C 4378 3492 4392 3499 4385 3510C 4379 3520 4359 3521 4327 3513z" stroke="none" fill="#000000" fill-rule="nonzero" />
        <path d="M4200 3468C 4181 3463 4151 3456 4133 3453C 4115 3450 4095 3442 4089 3434C 4083 3426 4063 3420 4046 3420C 4029 3420 4008 3415 4000 3410C 3989 3403 3997 3400 4031 3400C 4056 3400 4080 3404 4086 3409C 4100 3422 4159 3430 4165 3420C 4176 3403 4190 3409 4202 3435C 4210 3453 4221 3460 4241 3460C 4256 3460 4272 3465 4275 3470C 4283 3482 4247 3481 4200 3468z" stroke="none" fill="#000000" fill-rule="nonzero" />
        <path d="M4447 3474C 4435 3462 4451 3450 4480 3450C 4502 3450 4508 3454 4504 3465C 4498 3480 4459 3486 4447 3474z" stroke="none" fill="#000000" fill-rule="nonzero" />
        <path d="M4390 3416C 4370 3364 4401 3320 4457 3320C 4511 3320 4566 3392 4530 3415C 4525 3418 4520 3414 4520 3406C 4520 3386 4475 3356 4455 3363C 4447 3367 4434 3385 4426 3405C 4408 3446 4403 3448 4390 3416z" stroke="none" fill="#000000" fill-rule="nonzero" />
        <path d="M2816 3364C 2794 3345 2781 3340 2759 3345C 2728 3352 2721 3339 2739 3311C 2753 3290 2815 3292 2840 3315C 2860 3333 2867 3374 2852 3383C 2848 3386 2832 3377 2816 3364z" stroke="none" fill="#000000" fill-rule="nonzero" />
        <path d="M3877 3383C 3863 3370 3871 3360 3894 3360C 3927 3360 3951 3370 3944 3381C 3938 3391 3887 3393 3877 3383z" stroke="none" fill="#000000" fill-rule="nonzero" />
        <path d="M3760 3347L3735 3336L3764 3332C 3799 3328 3840 3337 3840 3350C 3840 3363 3791 3362 3760 3347z" stroke="none" fill="#000000" fill-rule="nonzero" />
        <path d="M3976 3321C 3970 3311 3992 3300 4017 3300C 4030 3300 4030 3303 4020 3315C 4006 3332 3984 3335 3976 3321z" stroke="none" fill="#000000" fill-rule="nonzero" />
        <path d="M3610 3305C 3603 3297 3585 3290 3569 3290C 3554 3290 3538 3286 3535 3280C 3526 3265 3558 3268 3615 3286C 3704 3315 3709 3319 3664 3319C 3639 3320 3618 3314 3610 3305z" stroke="none" fill="#000000" fill-rule="nonzero" />
        <path d="M3919 3307C 3891 3286 3878 3252 3890 3231C 3920 3173 3996 3152 4024 3192C 4051 3230 4042 3268 4013 3239C 4007 3233 3990 3230 3974 3232C 3951 3234 3944 3241 3942 3263C 3940 3279 3944 3298 3951 3306C 3966 3324 3943 3325 3919 3307z" stroke="none" fill="#000000" fill-rule="nonzero" />
        <path d="M3400 3250C 3400 3237 3450 3237 3470 3250C 3481 3257 3474 3260 3443 3260C 3419 3260 3400 3256 3400 3250z" stroke="none" fill="#000000" fill-rule="nonzero" />
        <path d="M3305 3220C 3301 3214 3313 3210 3334 3210C 3353 3210 3372 3215 3375 3220C 3379 3226 3367 3230 3346 3230C 3327 3230 3308 3226 3305 3220z" stroke="none" fill="#000000" fill-rule="nonzero" />
        <path d="M3195 3191C 3192 3186 3193 3179 3198 3176C 3210 3169 3250 3180 3250 3191C 3250 3203 3203 3203 3195 3191z" stroke="none" fill="#000000" fill-rule="nonzero" />
        <path d="M3422 3150C 3407 3117 3403 3094 3408 3082C 3413 3073 3423 3052 3431 3036C 3439 3020 3453 3002 3462 2996C 3499 2973 3570 3048 3570 3111C 3570 3147 3565 3147 3533 3110C 3500 3070 3466 3070 3450 3110C 3434 3149 3442 3168 3477 3172C 3514 3176 3513 3194 3475 3198C 3447 3201 3442 3197 3422 3150z" stroke="none" fill="#000000" fill-rule="nonzero" />
        <path d="M3083 3163C 3076 3161 3070 3154 3070 3149C 3070 3138 3151 3148 3165 3161C 3175 3170 3105 3172 3083 3163z" stroke="none" fill="#000000" fill-rule="nonzero" />
        <path d="M2964 3125C 2954 3117 2931 3110 2913 3110C 2874 3110 2848 3101 2856 3089C 2865 3074 2927 3079 2944 3095C 2952 3103 2969 3110 2982 3110C 3016 3110 3050 3121 3050 3131C 3050 3146 2985 3141 2964 3125z" stroke="none" fill="#000000" fill-rule="nonzero" />
        <path d="M2780 3071C 2764 3067 2759 3062 2767 3057C 2783 3047 2832 3059 2824 3071C 2818 3081 2816 3081 2780 3071z" stroke="none" fill="#000000" fill-rule="nonzero" />
        <path d="M2953 3028C 2955 3021 2963 3015 2970 3015C 2977 3015 2985 3021 2988 3028C 2990 3035 2983 3040 2970 3040C 2957 3040 2950 3035 2953 3028z" stroke="none" fill="#000000" fill-rule="nonzero" />
        <path d="M2888 2979C 2878 2962 2870 2943 2870 2936C 2870 2915 2903 2892 2935 2890C 2989 2886 2999 2890 3016 2915C 3038 2948 3025 2966 2994 2946C 2947 2914 2904 2938 2917 2988C 2925 3020 2908 3015 2888 2979z" stroke="none" fill="#000000" fill-rule="nonzero" />
        <path d="M3848 2623C 3854 2621 3866 2621 3873 2623C 3879 2626 3874 2628 3860 2628C 3846 2628 3841 2626 3848 2623z" stroke="none" fill="#000000" fill-rule="nonzero" />
        <path d="M4193 2523C 4171 2515 4178 2496 4252 2353C 4291 2277 4334 2194 4347 2168C 4370 2122 4392 2108 4406 2131C 4411 2140 4396 2181 4369 2230C 4364 2238 4352 2263 4343 2285C 4329 2319 4303 2370 4233 2503C 4218 2530 4215 2532 4193 2523z" stroke="none" fill="#000000" fill-rule="nonzero" />
        <path d="M3515 2510C 3497 2482 3570 2331 3603 2330C 3616 2330 3611 2375 3595 2396C 3587 2406 3580 2423 3580 2434C 3580 2456 3542 2520 3530 2520C 3525 2520 3519 2516 3515 2510z" stroke="none" fill="#000000" fill-rule="nonzero" />
        <path d="M3140 2485C 3140 2472 3154 2431 3172 2394C 3202 2332 3223 2309 3237 2324C 3243 2330 3220 2394 3183 2478C 3166 2516 3140 2521 3140 2485z" stroke="none" fill="#000000" fill-rule="nonzero" />
        <path d="M3855 2489C 3848 2467 3854 2454 3942 2290C 3964 2249 3991 2197 4003 2175C 4029 2124 4049 2100 4067 2100C 4086 2100 4072 2146 4027 2235C 4021 2246 4000 2288 3979 2328C 3959 2368 3938 2406 3932 2413C 3927 2419 3919 2436 3915 2450C 3907 2477 3882 2510 3869 2510C 3865 2510 3858 2500 3855 2489z" stroke="none" fill="#000000" fill-rule="nonzero" />
        <path d="M4910 2419C 4910 2413 4919 2389 4929 2366C 4949 2324 5005 2148 5016 2095C 5022 2065 5022 2065 5033 2088C 5041 2105 5040 2126 5031 2163C 5025 2192 5015 2239 5010 2268C 4998 2330 4950 2424 4927 2428C 4917 2430 4910 2426 4910 2419z" stroke="none" fill="#000000" fill-rule="nonzero" />
        <path d="M4670 2385C 4670 2330 4789 2102 4811 2116C 4825 2124 4821 2156 4805 2170C 4797 2177 4790 2190 4790 2200C 4790 2210 4784 2223 4776 2229C 4768 2236 4758 2255 4755 2271C 4751 2287 4744 2300 4739 2300C 4734 2300 4730 2305 4730 2311C 4730 2317 4721 2333 4710 2347C 4699 2361 4690 2381 4690 2391C 4690 2402 4686 2410 4680 2410C 4675 2410 4670 2399 4670 2385z" stroke="none" fill="#000000" fill-rule="nonzero" />
        <path d="M3295 2322C 3270 2316 3268 2313 3283 2307C 3310 2297 3473 2299 3490 2310C 3501 2317 3498 2320 3474 2320C 3457 2320 3416 2322 3384 2324C 3352 2327 3312 2326 3295 2322z" stroke="none" fill="#000000" fill-rule="nonzero" />
        <path d="M3635 2321C 3625 2303 3653 2297 3734 2299C 3831 2301 3882 2309 3874 2321C 3867 2333 3643 2333 3635 2321z" stroke="none" fill="#000000" fill-rule="nonzero" />
        <path d="M2740 2288C 2740 2281 2745 2268 2750 2260C 2758 2248 2760 2251 2760 2273C 2760 2288 2756 2300 2750 2300C 2745 2300 2740 2294 2740 2288z" stroke="none" fill="#000000" fill-rule="nonzero" />
        <path d="M3246 2253C 3242 2244 3246 2222 3254 2205C 3262 2189 3278 2154 3290 2129C 3313 2078 3351 2055 3349 2093C 3348 2121 3279 2263 3264 2267C 3258 2269 3249 2263 3246 2253z" stroke="none" fill="#000000" fill-rule="nonzero" />
        <path d="M3625 2261C 3610 2235 3675 2090 3702 2090C 3726 2090 3725 2096 3687 2186C 3654 2262 3638 2282 3625 2261z" stroke="none" fill="#000000" fill-rule="nonzero" />
        <path d="M2773 2183C 2779 2133 2794 2054 2811 1985C 2835 1891 2875 1619 2874 1555C 2874 1528 2870 1496 2866 1485C 2860 1467 2871 1458 2957 1413C 3029 1375 3056 1356 3060 1338C 3065 1320 3073 1315 3095 1315C 3121 1315 3125 1318 3122 1340C 3120 1354 3115 1478 3111 1616C 3106 1803 3101 1872 3091 1884C 3075 1903 2980 1906 2962 1888C 2955 1881 2950 1857 2950 1834C 2950 1810 2946 1788 2940 1785C 2935 1782 2930 1787 2930 1798C 2930 1808 2921 1825 2911 1834C 2900 1844 2890 1870 2887 1893C 2882 1939 2838 2079 2815 2123C 2807 2139 2800 2162 2800 2175C 2800 2206 2790 2230 2778 2230C 2772 2230 2770 2211 2773 2183z" stroke="none" fill="#000000" fill-rule="nonzero" />
        <path d="M4435 2110C 4404 2098 4431 2092 4546 2087C 4648 2082 4690 2090 4660 2109C 4643 2121 4464 2121 4435 2110z" stroke="none" fill="#000000" fill-rule="nonzero" />
        <path d="M4111 2101C 4084 2083 4110 2068 4158 2075C 4183 2079 4232 2081 4267 2081C 4301 2081 4330 2085 4330 2090C 4330 2096 4297 2100 4256 2100C 4216 2100 4170 2102 4154 2105C 4138 2108 4119 2106 4111 2101z" stroke="none" fill="#000000" fill-rule="nonzero" />
        <path d="M3758 2084C 3748 2081 3740 2075 3740 2070C 3740 2056 3770 2052 3872 2054C 3958 2056 3992 2062 3979 2074C 3972 2080 3776 2089 3758 2084z" stroke="none" fill="#000000" fill-rule="nonzero" />
        <path d="M3386 2071C 3383 2066 3388 2060 3398 2058C 3423 2052 3620 2061 3620 2069C 3620 2079 3392 2082 3386 2071z" stroke="none" fill="#000000" fill-rule="nonzero" />
        <path d="M3430 1933C 3361 1931 3296 1928 3285 1925C 3265 1921 3265 1914 3268 1633C 3269 1475 3272 1340 3275 1333C 3277 1326 3294 1314 3312 1307C 3331 1299 3374 1269 3408 1241C 3455 1201 3474 1191 3484 1199C 3491 1205 3514 1209 3536 1209C 3593 1207 3809 1225 3816 1233C 3819 1236 3796 1246 3764 1255C 3731 1264 3688 1278 3667 1287C 3619 1308 3550 1374 3529 1420C 3520 1439 3506 1467 3499 1483C 3480 1523 3484 1646 3506 1705C 3532 1773 3554 1803 3613 1850C 3659 1887 3688 1899 3763 1915C 3778 1918 3790 1924 3790 1929C 3790 1937 3696 1938 3430 1933z" stroke="none" fill="#000000" fill-rule="nonzero" />
        <path d="M3694 1811C 3642 1779 3615 1732 3617 1678C 3620 1622 3639 1580 3676 1551C 3704 1529 3730 1523 3730 1540C 3730 1546 3726 1550 3721 1550C 3698 1550 3670 1622 3670 1680C 3670 1731 3674 1744 3705 1784C 3743 1834 3741 1840 3694 1811z" stroke="none" fill="#000000" fill-rule="nonzero" />
        <path d="M3860 1826C 3860 1823 3873 1807 3889 1789C 3910 1766 3920 1743 3925 1704C 3932 1644 3923 1543 3909 1534C 3904 1531 3893 1514 3886 1495C 3878 1477 3858 1452 3841 1439C 3807 1414 3801 1400 3825 1400C 3850 1400 3916 1471 3946 1530C 3985 1606 3991 1705 3961 1754C 3937 1793 3860 1847 3860 1826z" stroke="none" fill="#000000" fill-rule="nonzero" />
        <path d="M4105 989C 4006 984 3850 979 3759 977C 3668 975 3589 970 3583 967C 3577 963 3574 941 3577 918C 3584 847 3580 845 3413 842C 3257 839 3220 835 3220 821C 3220 794 3652 801 3790 830C 3820 836 3888 850 3940 861C 4058 885 4088 893 4225 936C 4380 985 4367 979 4350 990C 4342 996 4324 999 4310 998C 4296 998 4204 993 4105 989z" stroke="none" fill="#000000" fill-rule="nonzero" />
	</g>
</g>
</svg>