<?xml version="1.0" standalone="yes"?>
<svg xmlns="http://www.w3.org/2000/svg" width="224" height="224" >
<path style="fill:#21bfd6; stroke:none;" d="M0 0L0 224L224 224L224 0L0 0z"/>
<path style="fill:#23bcc6; stroke:none;" d="M93 16L93 18L96 18L96 16L93 16M79 19L76 22L79 19M65 23L64 28L65 28L65 23M74 24L75 25L74 24M84 25L84 26L88 25L84 25M72 26L69 33L69 49L70 49C70 43.2333 67.7627 28.2474 77.0147 28.3727C82.4268 28.446 88.1199 33.8971 93 36L92 32L84 27L80 28L81 26L72 26z"/>
<path style="fill:#5bc3cf; stroke:none;" d="M73 28L72 30L73 28z"/>
<path style="fill:#a1e4ee; stroke:none;" d="M72 31L78 29L72 31z"/>
<path style="fill:#5bc3cf; stroke:none;" d="M78 28L78 29L83 31L83 30L78 28z"/>
<path style="fill:#f6fcfb; stroke:none;" d="M72 79C85.8276 73.9244 81 54.221 81 42L122 63.8603L135.397 73.1852L136 89L136 124C133.029 122.726 114.083 110.421 114.596 120.174C114.895 125.837 139.867 140.063 143.821 134.551C146.557 130.737 145 122.468 145 118C145 103.186 148.844 82.2619 144.566 68.1042C142.974 62.8341 135.353 60.5549 131 58.1389C117.654 50.7323 104.522 42.794 91 35.7454C87.1436 33.7351 77.7558 26.5681 73.6034 30.608C70.7129 33.4202 72 40.3528 72 44L72 79z"/>
<path style="fill:#a1e4ee; stroke:none;" d="M79 29L80 30L79 29M80.6667 30.3333L81.3333 30.6667L80.6667 30.3333z"/>
<path style="fill:#5bc3cf; stroke:none;" d="M71 31L70 69L71 69L71 31z"/>
<path style="fill:#a1e4ee; stroke:none;" d="M82.6667 31.3333L83.3333 31.6667L82.6667 31.3333z"/>
<path style="fill:#5bc3cf; stroke:none;" d="M84 31L85 32L84 31z"/>
<path style="fill:#23bcc6; stroke:none;" d="M64 32L64 48L65 48L64 32z"/>
<path style="fill:#a1e4ee; stroke:none;" d="M71 32L71 80L78 77L78 76L72 79C72 65.735 76.1095 44.1766 71 32M85 32L87 34L85 32z"/>
<path style="fill:#5bc3cf; stroke:none;" d="M86 32L87 33L86 32z"/>
<path style="fill:#23bcc6; stroke:none;" d="M94 32L96 34L96 32L94 32M97 32L97 33L100 33L97 32z"/>
<path style="fill:#5bc3cf; stroke:none;" d="M87 33L88 34L87 33z"/>
<path style="fill:#a1e4ee; stroke:none;" d="M88 34L89 35L88 34z"/>
<path style="fill:#5bc3cf; stroke:none;" d="M89 34L90 35L89 34z"/>
<path style="fill:#23bcc6; stroke:none;" d="M109 34L112 38L111 34L109 34z"/>
<path style="fill:#a1e4ee; stroke:none;" d="M90 35L91 36L90 35z"/>
<path style="fill:#5bc3cf; stroke:none;" d="M91 35L92 36L91 35z"/>
<path style="fill:#a1e4ee; stroke:none;" d="M92 36L93 37L92 36z"/>
<path style="fill:#5bc3cf; stroke:none;" d="M93 36L94 37L93 36z"/>
<path style="fill:#23bcc6; stroke:none;" d="M94 36L97 38L97 37L94 36M101 36L101 37L104 37L101 36z"/>
<path style="fill:#a1e4ee; stroke:none;" d="M94 37L95 38L94 37z"/>
<path style="fill:#23bcc6; stroke:none;" d="M98 37C100.083 40.6579 102.909 41.5779 107 42C107.489 45.6953 111.181 46.1559 113 43L108 44L109 42L101 37L98 37z"/>
<path style="fill:#5bc3cf; stroke:none;" d="M96 38L96 39L99 40L96 38z"/>
<path style="fill:#a1e4ee; stroke:none;" d="M97 39L98 40L97 39M99 40L99 41L105 44L105 43L99 40z"/>
<path style="fill:#5bc3cf; stroke:none;" d="M100 40L101 41L100 40z"/>
<path style="fill:#23bcc6; stroke:none;" d="M116 40L117 41L116 40z"/>
<path style="fill:#5bc3cf; stroke:none;" d="M102 41L103 42L102 41z"/>
<path style="fill:#a1e4ee; stroke:none;" d="M81.3333 42.6667L81.6667 43.3333L81.3333 42.6667z"/>
<path style="fill:#5bc3cf; stroke:none;" d="M82 42L83 43L82 42z"/>
<path style="fill:#a1e4ee; stroke:none;" d="M83 42L84 43L83 42z"/>
<path style="fill:#5bc3cf; stroke:none;" d="M104 42L106 44L106 42L104 42z"/>
<path style="fill:#21bfd6; stroke:none;" d="M106 42L107 43L106 42z"/>
<path style="fill:#23bcc6; stroke:none;" d="M82 43L82 45L84 43L82 43z"/>
<path style="fill:#5bc3cf; stroke:none;" d="M84 43L85 44L84 43z"/>
<path style="fill:#a1e4ee; stroke:none;" d="M85 43L86 44L85 43z"/>
<path style="fill:#5bc3cf; stroke:none;" d="M81 44L82 45L81 44z"/>
<path style="fill:#23bcc6; stroke:none;" d="M85 44L85 47L89 47L89 46L85 44z"/>
<path style="fill:#5bc3cf; stroke:none;" d="M86 44L87 45L86 44z"/>
<path style="fill:#a1e4ee; stroke:none;" d="M106 44L107 45L106 44z"/>
<path style="fill:#5bc3cf; stroke:none;" d="M107 44L108 45L107 44z"/>
<path style="fill:#a1e4ee; stroke:none;" d="M81 45L82 46L81 45z"/>
<path style="fill:#5bc3cf; stroke:none;" d="M87 45L88 46L87 45z"/>
<path style="fill:#a1e4ee; stroke:none;" d="M88 45L88 46L93 48L93 47L88 45M108 45L109 46L108 45z"/>
<path style="fill:#5bc3cf; stroke:none;" d="M109 45L110 46L109 45M81 46L82 47L81 46z"/>
<path style="fill:#23bcc6; stroke:none;" d="M82 46L82 64L83 64L82 46z"/>
<path style="fill:#21bfd6; stroke:none;" d="M87 46L88 47L87 46z"/>
<path style="fill:#5bc3cf; stroke:none;" d="M89 46L90 47L89 46z"/>
<path style="fill:#a1e4ee; stroke:none;" d="M110 46L111 47L110 46z"/>
<path style="fill:#5bc3cf; stroke:none;" d="M111 46L112 47L111 46z"/>
<path style="fill:#a1e4ee; stroke:none;" d="M81 47L81 64L82 64L81 47z"/>
<path style="fill:#23bcc6; stroke:none;" d="M90 47L96 51L96 50L90 47z"/>
<path style="fill:#5bc3cf; stroke:none;" d="M91 47L92 48L91 47M112 47L113 48L112 47z"/>
<path style="fill:#23bcc6; stroke:none;" d="M113 47L113 48L121 52L113 47z"/>
<path style="fill:#5bc3cf; stroke:none;" d="M93 48L94 49L93 48z"/>
<path style="fill:#a1e4ee; stroke:none;" d="M94 48L95 49L94 48M113 48L114 49L113 48z"/>
<path style="fill:#5bc3cf; stroke:none;" d="M114 48L114 49L117 50L114 48z"/>
<path style="fill:#21bfd6; stroke:none;" d="M93.6667 49.3333L94.3333 49.6667L93.6667 49.3333z"/>
<path style="fill:#5bc3cf; stroke:none;" d="M95 49L96 50L95 49z"/>
<path style="fill:#a1e4ee; stroke:none;" d="M115 49L116 50L115 49z"/>
<path style="fill:#23bcc6; stroke:none;" d="M121.667 49.3333L122.333 49.6667L121.667 49.3333z"/>
<path style="fill:#5bc3cf; stroke:none;" d="M96 50L97 51L96 50z"/>
<path style="fill:#a1e4ee; stroke:none;" d="M97 50L98 51L97 50M117 50L120 52L120 51L117 50z"/>
<path style="fill:#5bc3cf; stroke:none;" d="M118 50L119 51L118 50z"/>
<path style="fill:#23bcc6; stroke:none;" d="M129.333 50.6667L129.667 51.3333L129.333 50.6667M97 51L98 52L97 51z"/>
<path style="fill:#5bc3cf; stroke:none;" d="M98 51L99 52L98 51z"/>
<path style="fill:#a1e4ee; stroke:none;" d="M99 51L100 52L99 51z"/>
<path style="fill:#23bcc6; stroke:none;" d="M127 51L128 52L127 51M99 52L101 54L99 52z"/>
<path style="fill:#5bc3cf; stroke:none;" d="M100 52L102 54L100 52z"/>
<path style="fill:#a1e4ee; stroke:none;" d="M101 52L102 53L101 52M121 52L123 54L121 52z"/>
<path style="fill:#23bcc6; stroke:none;" d="M122 52L122 53L127 53L129 56L127 52L122 52M132 52L132 54L134 54L134 52L132 52M94 53L95 54L94 53z"/>
<path style="fill:#a1e4ee; stroke:none;" d="M102 53L103 54L102 53z"/>
<path style="fill:#5bc3cf; stroke:none;" d="M123 53L124 54L123 53z"/>
<path style="fill:#21bfd6; stroke:none;" d="M125.667 53.3333L126.333 53.6667L125.667 53.3333z"/>
<path style="fill:#23bcc6; stroke:none;" d="M102 54L102 55L105 56L102 54z"/>
<path style="fill:#a1e4ee; stroke:none;" d="M104 54L104 55L109 57L109 56L104 54M124 54L125 55L124 54z"/>
<path style="fill:#5bc3cf; stroke:none;" d="M125 54L126 55L125 54z"/>
<path style="fill:#23bcc6; stroke:none;" d="M139 57L144 59L143 54L139 57M92 55L92 56L99 58L99 57L92 55M101 55L102 56L101 55z"/>
<path style="fill:#5bc3cf; stroke:none;" d="M105 55L106 56L105 55z"/>
<path style="fill:#a1e4ee; stroke:none;" d="M126 55L127 56L126 55z"/>
<path style="fill:#5bc3cf; stroke:none;" d="M127 55L128 56L127 55z"/>
<path style="fill:#23bcc6; stroke:none;" d="M106 56L104 58L104 62L105 62L111 59L111 58L106 56z"/>
<path style="fill:#5bc3cf; stroke:none;" d="M107 56L108 57L107 56z"/>
<path style="fill:#a1e4ee; stroke:none;" d="M128 56L128 57L134 60L134 59L128 56z"/>
<path style="fill:#5bc3cf; stroke:none;" d="M129 56L130 57L129 56z"/>
<path style="fill:#23bcc6; stroke:none;" d="M130 56L130 57L133 58L130 56z"/>
<path style="fill:#21bfd6; stroke:none;" d="M141.667 56.3333L142.333 56.6667L141.667 56.3333z"/>
<path style="fill:#5bc3cf; stroke:none;" d="M109 57L110 58L109 57z"/>
<path style="fill:#a1e4ee; stroke:none;" d="M110 57L111 58L110 57z"/>
<path style="fill:#5bc3cf; stroke:none;" d="M131 57L132 58L131 57z"/>
<path style="fill:#23bcc6; stroke:none;" d="M135 57L140 62L140 61L135 57z"/>
<path style="fill:#5bc3cf; stroke:none;" d="M111 58L113 60L111 58z"/>
<path style="fill:#a1e4ee; stroke:none;" d="M112 58L113 59L112 58z"/>
<path style="fill:#5bc3cf; stroke:none;" d="M133 58L134 59L133 58z"/>
<path style="fill:#a1e4ee; stroke:none;" d="M113 59L113 60L116 61L113 59z"/>
<path style="fill:#5bc3cf; stroke:none;" d="M134 59L135 60L134 59z"/>
<path style="fill:#23bcc6; stroke:none;" d="M140 59L140 60L144 62L140 59M95 60L95 62L97 62L97 60L95 60M113 60L113 61C118.89 64.7582 123.57 70.0754 131 70L134 75L135 75C132.768 67.7478 119.645 62.8632 113 60z"/>
<path style="fill:#5bc3cf; stroke:none;" d="M114 60L115 61L114 60z"/>
<path style="fill:#a1e4ee; stroke:none;" d="M135 60L136 61L135 60z"/>
<path style="fill:#5bc3cf; stroke:none;" d="M136 60L137 61L136 60M116 61L117 62L116 61z"/>
<path style="fill:#a1e4ee; stroke:none;" d="M117 61L118 62L117 61M137 61L138 62L137 61z"/>
<path style="fill:#5bc3cf; stroke:none;" d="M138 61L139 62L138 61M118 62L120 64L118 62z"/>
<path style="fill:#a1e4ee; stroke:none;" d="M119 62L120 63L119 62M139 62L141 64L139 62z"/>
<path style="fill:#5bc3cf; stroke:none;" d="M140 62L142 64L140 62z"/>
<path style="fill:#23bcc6; stroke:none;" d="M141 62L142 63L141 62M69 63C68.215 66.62 67.8741 69.6178 71 72L69 63M110 63L111 64L110 63z"/>
<path style="fill:#a1e4ee; stroke:none;" d="M120.667 63.3333L121.333 63.6667L120.667 63.3333z"/>
<path style="fill:#23bcc6; stroke:none;" d="M142 63L142 64L146 65L142 63z"/>
<path style="fill:#5bc3cf; stroke:none;" d="M81 64L81 72L82 72L81 64z"/>
<path style="fill:#23bcc6; stroke:none;" d="M84 64L85 70L86 70L86 64L84 64z"/>
<path style="fill:#5bc3cf; stroke:none;" d="M121 64L121 65L124 66L121 64z"/>
<path style="fill:#a1e4ee; stroke:none;" d="M123 64L124 65L123 64M142 64L143 65L142 64z"/>
<path style="fill:#5bc3cf; stroke:none;" d="M143 64L146 67L143 64z"/>
<path style="fill:#23bcc6; stroke:none;" d="M148 64L149 65L148 64M151 64L153 67L153 64L151 64M64 65L64 71L65 71L64 65z"/>
<path style="fill:#a1e4ee; stroke:none;" d="M124 65L125 66L124 65z"/>
<path style="fill:#23bcc6; stroke:none;" d="M158 65L158 73L160 73L158 65M96 67L97 70L101 66L96 67M111 66L113 70L114 70L111 66z"/>
<path style="fill:#5bc3cf; stroke:none;" d="M125 66L128 68L128 67L125 66z"/>
<path style="fill:#a1e4ee; stroke:none;" d="M126 66L127 67L126 66M144 66L145 67L144 66z"/>
<path style="fill:#23bcc6; stroke:none;" d="M146.333 66.6667L146.667 67.3333L146.333 66.6667M87 68L93 70L93 68L92 67L87 68z"/>
<path style="fill:#a1e4ee; stroke:none;" d="M128 67L129 68L128 67M145 67C145 88.3598 148.947 114.223 144 135L145 135C149.181 120.854 146 101.757 146 87C146 80.846 147.395 72.7073 145 67z"/>
<path style="fill:#23bcc6; stroke:none;" d="M150 67L151 68L150 67z"/>
<path style="fill:#5bc3cf; stroke:none;" d="M129 68L130 69L129 68z"/>
<path style="fill:#a1e4ee; stroke:none;" d="M130 68L131 69L130 68z"/>
<path style="fill:#23bcc6; stroke:none;" d="M120 69L121 70L120 69z"/>
<path style="fill:#21bfd6; stroke:none;" d="M128 69L129 70L128 69z"/>
<path style="fill:#a1e4ee; stroke:none;" d="M131 69L131 70L134 71L131 69z"/>
<path style="fill:#23bcc6; stroke:none;" d="M82 70L82 74L83 74L82 70M109 70L103 71L103 72C105.328 72.1076 110.155 73.3376 109 70z"/>
<path style="fill:#5bc3cf; stroke:none;" d="M132 70L133 71L132 70z"/>
<path style="fill:#23bcc6; stroke:none;" d="M146 70L146 120L147 120L147 85L146 70M100 71L92 79L102 71L100 71M129 71L130 72L129 71z"/>
<path style="fill:#5bc3cf; stroke:none;" d="M134 71L135 76L136 76L134 71z"/>
<path style="fill:#a1e4ee; stroke:none;" d="M135 71L136 72L135 71z"/>
<path style="fill:#5bc3cf; stroke:none;" d="M70 72L70 79L71 79L70 72z"/>
<path style="fill:#a1e4ee; stroke:none;" d="M81 72L79 76L81 72z"/>
<path style="fill:#23bcc6; stroke:none;" d="M94 72L95 73L94 72z"/>
<path style="fill:#5bc3cf; stroke:none;" d="M101 73L101 74L105 73L101 73z"/>
<path style="fill:#a1e4ee; stroke:none;" d="M105.667 72.3333L106.333 72.6667L105.667 72.3333z"/>
<path style="fill:#5bc3cf; stroke:none;" d="M107 72L108 73L107 72M109.333 72.6667L109.667 73.3333L109.333 72.6667z"/>
<path style="fill:#a1e4ee; stroke:none;" d="M102 73L103 74L102 73z"/>
<path style="fill:#f6fcfb; stroke:none;" d="M96 160C86.9595 146.199 65.5262 167.669 55 171L56 131L57.0278 113.185L70 103.861L101 86C101 89.2941 99.3562 110.579 107.683 104.342C112.333 100.859 112.539 73.0429 104.906 73.358C99.4946 73.5814 93.5317 78.9441 89 81.5756C76.5369 88.8129 61.165 95.5168 50.2284 104.901C45.3804 109.061 47 117.262 47 123C47 137.324 46 151.624 46 166C46 170.244 43.969 181.512 49.1481 183.343C53.459 184.866 59.4768 180.149 63 178.15C73.6647 172.097 84.53 164.317 96 160z"/>
<path style="fill:#a1e4ee; stroke:none;" d="M108 73L108 75L110 75L108 73z"/>
<path style="fill:#23bcc6; stroke:none;" d="M110 73L111 81L112 81L110 73z"/>
<path style="fill:#5bc3cf; stroke:none;" d="M81 74L77 77L77 78L81 74M99 74L98 76L99 74z"/>
<path style="fill:#a1e4ee; stroke:none;" d="M100 74L101 75L100 74z"/>
<path style="fill:#23bcc6; stroke:none;" d="M81 75L80 77L82 77L81 75M85 75L85 79L90 78L85 75z"/>
<path style="fill:#a1e4ee; stroke:none;" d="M99 75L100 76L99 75z"/>
<path style="fill:#5bc3cf; stroke:none;" d="M110 75L111 76L110 75z"/>
<path style="fill:#23bcc6; stroke:none;" d="M69 76C68.845 79.9215 70.2173 80.6983 74 81L74 80L69 76z"/>
<path style="fill:#5bc3cf; stroke:none;" d="M96 76L97 77L96 76z"/>
<path style="fill:#a1e4ee; stroke:none;" d="M97 76L98 77L97 76M110 76L111 77L110 76z"/>
<path style="fill:#23bcc6; stroke:none;" d="M129.333 76.6667L129.667 77.3333L129.333 76.6667M152 76L152 80L154 80L154 76L152 76M78.6667 77.3333L79.3333 77.6667L78.6667 77.3333z"/>
<path style="fill:#5bc3cf; stroke:none;" d="M93 79L96 78L93 79M110 77L112 88L112 77L110 77z"/>
<path style="fill:#23bcc6; stroke:none;" d="M66 78L67 79L66 78z"/>
<path style="fill:#5bc3cf; stroke:none;" d="M75 78L74 80L75 78z"/>
<path style="fill:#23bcc6; stroke:none;" d="M75 81L78 78L75 81z"/>
<path style="fill:#a1e4ee; stroke:none;" d="M94 78L95 79L94 78z"/>
<path style="fill:#23bcc6; stroke:none;" d="M131 81L135 78L131 81z"/>
<path style="fill:#5bc3cf; stroke:none;" d="M135 78L135 120L136 120C136 108.043 139.611 88.9878 135 78z"/>
<path style="fill:#23bcc6; stroke:none;" d="M79 81L82 79L79 81M87 82L91 80L87 82z"/>
<path style="fill:#5bc3cf; stroke:none;" d="M91 79L92 80L91 79z"/>
<path style="fill:#a1e4ee; stroke:none;" d="M92 79L93 80L92 79z"/>
<path style="fill:#23bcc6; stroke:none;" d="M85 80L86 81L85 80z"/>
<path style="fill:#5bc3cf; stroke:none;" d="M89 80L88 82L89 80z"/>
<path style="fill:#a1e4ee; stroke:none;" d="M90 80L91 81L90 80z"/>
<path style="fill:#23bcc6; stroke:none;" d="M150 80L150 88L151 88L150 80M155 80L155 95L156 95L155 80M82 81L83 82L82 81z"/>
<path style="fill:#a1e4ee; stroke:none;" d="M89 81L90 82L89 81z"/>
<path style="fill:#23bcc6; stroke:none;" d="M64 82L71 86L71 85L64 82M85 82L84 84L85 82z"/>
<path style="fill:#5bc3cf; stroke:none;" d="M86 82L87 83L86 82z"/>
<path style="fill:#a1e4ee; stroke:none;" d="M87 82L88 83L87 82z"/>
<path style="fill:#5bc3cf; stroke:none;" d="M85 83L86 84L85 83z"/>
<path style="fill:#23bcc6; stroke:none;" d="M73 89L73 90L83 85L73 89z"/>
<path style="fill:#5bc3cf; stroke:none;" d="M83 84L84 85L83 84M78 88L82 86L78 88z"/>
<path style="fill:#a1e4ee; stroke:none;" d="M82 85L83 86L82 85z"/>
<path style="fill:#23bcc6; stroke:none;" d="M64 86L65 87L64 86M72 86L73 87L72 86z"/>
<path style="fill:#a1e4ee; stroke:none;" d="M80 86L81 87L80 86M99.6667 86.3333L100.333 86.6667L99.6667 86.3333M79 87L80 88L79 87M97 87L98 88L97 87z"/>
<path style="fill:#5bc3cf; stroke:none;" d="M95 89L95 90L101 88L95 89z"/>
<path style="fill:#23bcc6; stroke:none;" d="M67.6667 88.3333L68.3333 88.6667L67.6667 88.3333z"/>
<path style="fill:#5bc3cf; stroke:none;" d="M76 88L77 89L76 88z"/>
<path style="fill:#a1e4ee; stroke:none;" d="M77 88L78 89L77 88z"/>
<path style="fill:#23bcc6; stroke:none;" d="M97 89L100 91L99 88L97 89z"/>
<path style="fill:#a1e4ee; stroke:none;" d="M100 88L100 102L101 102L100 88M110 88L110 94L111 94L110 88z"/>
<path style="fill:#23bcc6; stroke:none;" d="M111.333 88.6667L111.667 89.3333L111.333 88.6667M69 89L70 90L69 89z"/>
<path style="fill:#a1e4ee; stroke:none;" d="M75 89L76 90L75 89M94 89L95 90L94 89z"/>
<path style="fill:#23bcc6; stroke:none;" d="M64 90L65 91L64 90M68 90L60 98L72 91L68 90z"/>
<path style="fill:#5bc3cf; stroke:none;" d="M72 90L71 92L72 90z"/>
<path style="fill:#a1e4ee; stroke:none;" d="M73 90L74 91L73 90M92 90L89 92L89 93L93 91L92 90z"/>
<path style="fill:#5bc3cf; stroke:none;" d="M93 90L92 92L93 90z"/>
<path style="fill:#23bcc6; stroke:none;" d="M93 92L96 90L93 92z"/>
<path style="fill:#5bc3cf; stroke:none;" d="M111 90L112 91L111 90z"/>
<path style="fill:#a1e4ee; stroke:none;" d="M72 91L73 92L72 91z"/>
<path style="fill:#23bcc6; stroke:none;" d="M111 91C111.007 100.824 110.699 108.047 99 104C108.428 114.682 115.326 100.057 111 91z"/>
<path style="fill:#5bc3cf; stroke:none;" d="M69 92L68 94L69 92z"/>
<path style="fill:#a1e4ee; stroke:none;" d="M70 92L71 93L70 92z"/>
<path style="fill:#5bc3cf; stroke:none;" d="M90 92L91 93L90 92z"/>
<path style="fill:#23bcc6; stroke:none;" d="M91 92L92 93L91 92z"/>
<path style="fill:#a1e4ee; stroke:none;" d="M69 93L70 94L69 93M87 93L84 95L84 96L88 94L87 93z"/>
<path style="fill:#5bc3cf; stroke:none;" d="M88.6667 93.3333L89.3333 93.6667L88.6667 93.3333M66 94L67 95L66 94z"/>
<path style="fill:#a1e4ee; stroke:none;" d="M67 94L68 95L67 94z"/>
<path style="fill:#23bcc6; stroke:none;" d="M87.6667 94.3333L88.3333 94.6667L87.6667 94.3333M90 94L91 95L90 94M95 94L96 95L95 94M99 94L99 103L100 103L99 94z"/>
<path style="fill:#5bc3cf; stroke:none;" d="M110 94L110 97L111 97L110 94M64 95L65 96L64 95z"/>
<path style="fill:#a1e4ee; stroke:none;" d="M65 95L66 96L65 95z"/>
<path style="fill:#5bc3cf; stroke:none;" d="M85 95L86 96L85 95z"/>
<path style="fill:#23bcc6; stroke:none;" d="M86 95L87 96L86 95M151 95L152 101L151 95M32 96L32 99L34 98L34 97L32 96M44 96L44 100L45 100L46 96L44 96M51.6667 96.3333L52.3333 96.6667L51.6667 96.3333z"/>
<path style="fill:#5bc3cf; stroke:none;" d="M62 96L61 98L62 96z"/>
<path style="fill:#a1e4ee; stroke:none;" d="M63 96L64 97L63 96M80 98L83 97L80 98z"/>
<path style="fill:#5bc3cf; stroke:none;" d="M83 96L84 97L83 96z"/>
<path style="fill:#23bcc6; stroke:none;" d="M74 103L77 104L87 97C81.9884 96.485 77.5833 99.634 74 103M131 96L131 114L132 114L131 96M53 99L56 98L53 99z"/>
<path style="fill:#a1e4ee; stroke:none;" d="M62 97L63 98L62 97z"/>
<path style="fill:#5bc3cf; stroke:none;" d="M81 97L82 98L81 97z"/>
<path style="fill:#21bfd6; stroke:none;" d="M84.3333 97.6667L84.6667 98.3333L84.3333 97.6667z"/>
<path style="fill:#23bcc6; stroke:none;" d="M96 97L96 102L96 97z"/>
<path style="fill:#a1e4ee; stroke:none;" d="M110 97L110 101L111 101L110 97z"/>
<path style="fill:#23bcc6; stroke:none;" d="M157 97L155 100L161 101L157 97M58 98L46 107L47 107L59 99L58 98z"/>
<path style="fill:#5bc3cf; stroke:none;" d="M59 98L60 99L59 98z"/>
<path style="fill:#a1e4ee; stroke:none;" d="M60 98L61 99L60 98M78 98L77 100L78 98z"/>
<path style="fill:#5bc3cf; stroke:none;" d="M79.6667 98.3333L80.3333 98.6667L79.6667 98.3333z"/>
<path style="fill:#23bcc6; stroke:none;" d="M167 98L168 99L167 98M48.6667 99.3333L49.3333 99.6667L48.6667 99.3333z"/>
<path style="fill:#a1e4ee; stroke:none;" d="M58 99L59 100L58 99z"/>
<path style="fill:#5bc3cf; stroke:none;" d="M78 99L79 100L78 99M82 99L83 100L82 99M156 99L155 110L156 110L158 100L156 99z"/>
<path style="fill:#23bcc6; stroke:none;" d="M174.667 99.3333L175.333 99.6667L174.667 99.3333z"/>
<path style="fill:#5bc3cf; stroke:none;" d="M56 100L57 101L56 100z"/>
<path style="fill:#a1e4ee; stroke:none;" d="M75 100L74 102L75 100z"/>
<path style="fill:#5bc3cf; stroke:none;" d="M76 100L77 101L76 100M111 100L108 106L111 100z"/>
<path style="fill:#a1e4ee; stroke:none;" d="M156 100L157 101L156 100z"/>
<path style="fill:#f6fcfb; stroke:none;" d="M157 100C152.702 114.546 176.003 122.422 187 127L187 128L148 148.247L133 154.864L118 147.975L86 132L86 130C89.237 128.975 104.406 121.706 96.6782 117.071C91.6895 114.079 69.6908 126.536 72.1983 132.674C74.0948 137.317 82.8676 140.134 87 142.258C100.523 149.207 116.155 161.645 131 164.979C136.331 166.177 142.431 161.531 147 159.247C160.433 152.53 173.652 145.379 187 138.49C190.767 136.546 202.352 132.715 201.168 127.078C200.29 122.893 193.354 120.131 190 118.309C178.948 112.303 168.134 105.864 157 100z"/>
<path style="fill:#a1e4ee; stroke:none;" d="M158 100L160 102L158 100z"/>
<path style="fill:#5bc3cf; stroke:none;" d="M159 100L160 101L159 100z"/>
<path style="fill:#23bcc6; stroke:none;" d="M162 101L162 102L173 108L173 107L165 103L165 102L168 101L162 101M38 101L40 109L41 109L38 101z"/>
<path style="fill:#5bc3cf; stroke:none;" d="M54 101L55 102L54 101z"/>
<path style="fill:#a1e4ee; stroke:none;" d="M55 101L56 102L55 101z"/>
<path style="fill:#5bc3cf; stroke:none;" d="M75 101L76 102L75 101M160 101L160 102L163 103L160 101z"/>
<path style="fill:#23bcc6; stroke:none;" d="M48 102L49 103L48 102z"/>
<path style="fill:#5bc3cf; stroke:none;" d="M52 102L51 104L52 102z"/>
<path style="fill:#a1e4ee; stroke:none;" d="M53 102L54 103L53 102M72 102L73 103L72 102z"/>
<path style="fill:#5bc3cf; stroke:none;" d="M73 102L74 103L73 102z"/>
<path style="fill:#23bcc6; stroke:none;" d="M80 102L81 103L80 102z"/>
<path style="fill:#5bc3cf; stroke:none;" d="M100 102L99 104L101 104L100 102z"/>
<path style="fill:#23bcc6; stroke:none;" d="M152 102L153 103L152 102z"/>
<path style="fill:#a1e4ee; stroke:none;" d="M161 102L162 103L161 102M52 103L53 104L52 103M70 103L71 104L70 103z"/>
<path style="fill:#5bc3cf; stroke:none;" d="M71 103L68 105L68 106L72 104L71 103z"/>
<path style="fill:#23bcc6; stroke:none;" d="M72 103L69 105L69 106L72 107L72 103z"/>
<path style="fill:#a1e4ee; stroke:none;" d="M109 103L110 104L109 103z"/>
<path style="fill:#23bcc6; stroke:none;" d="M153 103L154 108L155 108L153 103z"/>
<path style="fill:#a1e4ee; stroke:none;" d="M163 103L164 104L163 103z"/>
<path style="fill:#5bc3cf; stroke:none;" d="M164 103L165 104L164 103M49 104L50 105L49 104z"/>
<path style="fill:#a1e4ee; stroke:none;" d="M50 104L51 105L50 104M68 104L69 105L68 104z"/>
<path style="fill:#5bc3cf; stroke:none;" d="M101 104L103 106L101 104z"/>
<path style="fill:#a1e4ee; stroke:none;" d="M102 104L103 105L102 104M108 104L109 105L108 104M165 104L168 106L168 105L165 104z"/>
<path style="fill:#5bc3cf; stroke:none;" d="M166 104L167 105L166 104z"/>
<path style="fill:#23bcc6; stroke:none;" d="M178.667 104.333L179.333 104.667L178.667 104.333z"/>
<path style="fill:#5bc3cf; stroke:none;" d="M47 105L48 106L47 105z"/>
<path style="fill:#a1e4ee; stroke:none;" d="M48 105L49 106L48 105M67 105L68 106L67 105M103 105L104 106L103 105M107 105L108 106L107 105z"/>
<path style="fill:#5bc3cf; stroke:none;" d="M168 105L169 106L168 105z"/>
<path style="fill:#a1e4ee; stroke:none;" d="M47.3333 106.667L47.6667 107.333L47.3333 106.667M65 106L64 108L65 106z"/>
<path style="fill:#5bc3cf; stroke:none;" d="M66 106L65 108L66 106z"/>
<path style="fill:#23bcc6; stroke:none;" d="M64 110L68 110L69 106L64 110z"/>
<path style="fill:#5bc3cf; stroke:none;" d="M104 106L104 107L107 107L104 106z"/>
<path style="fill:#a1e4ee; stroke:none;" d="M169 106L170 107L169 106z"/>
<path style="fill:#5bc3cf; stroke:none;" d="M46 107L46 110L47 110L46 107z"/>
<path style="fill:#23bcc6; stroke:none;" d="M111 107L110 109L112 109L111 107z"/>
<path style="fill:#a1e4ee; stroke:none;" d="M170 107L171 108L170 107z"/>
<path style="fill:#5bc3cf; stroke:none;" d="M171 107L172 108L171 107z"/>
<path style="fill:#23bcc6; stroke:none;" d="M180.667 107.333L181.333 107.667L180.667 107.333M45 108L45 120L46 120L45 108z"/>
<path style="fill:#a1e4ee; stroke:none;" d="M62 108L63 109L62 108z"/>
<path style="fill:#5bc3cf; stroke:none;" d="M63 108L64 109L63 108M67 108L68 109L67 108z"/>
<path style="fill:#23bcc6; stroke:none;" d="M69 108L70 109L69 108M152 108L153 109L152 108z"/>
<path style="fill:#a1e4ee; stroke:none;" d="M172 108L173 109L172 108z"/>
<path style="fill:#5bc3cf; stroke:none;" d="M173 108L174 109L173 108z"/>
<path style="fill:#23bcc6; stroke:none;" d="M174 108L174 109L184 114L174 108M33 109L34 112L33 109z"/>
<path style="fill:#a1e4ee; stroke:none;" d="M60 109L61 110L60 109z"/>
<path style="fill:#5bc3cf; stroke:none;" d="M61 109L62 110L61 109z"/>
<path style="fill:#23bcc6; stroke:none;" d="M62 109L63 110L62 109M98 109L96 112C98.2508 111.527 99.1178 111.14 98 109M150 109L150 112L152 111L152 110L150 109M154 109L155 110L154 109z"/>
<path style="fill:#a1e4ee; stroke:none;" d="M174 109L175 110L174 109z"/>
<path style="fill:#5bc3cf; stroke:none;" d="M175 109L176 110L175 109z"/>
<path style="fill:#a1e4ee; stroke:none;" d="M46 110L46 136L47 136L46 110z"/>
<path style="fill:#5bc3cf; stroke:none;" d="M59 110C53.5533 116.166 56 128.158 56 136L57 136L59 110z"/>
<path style="fill:#23bcc6; stroke:none;" d="M60.6667 110.333L61.3333 110.667L60.6667 110.333M103 110L103 115L106 115L103 110M106.667 110.333L107.333 110.667L106.667 110.333M155 110L163 116L163 115L155 110z"/>
<path style="fill:#a1e4ee; stroke:none;" d="M156 110L158 112L156 110z"/>
<path style="fill:#5bc3cf; stroke:none;" d="M176 110L177 111L176 110z"/>
<path style="fill:#21bfd6; stroke:none;" d="M177 110L178 111L177 110z"/>
<path style="fill:#23bcc6; stroke:none;" d="M40 111L41 112L40 111z"/>
<path style="fill:#a1e4ee; stroke:none;" d="M57 111L58 112L57 111z"/>
<path style="fill:#23bcc6; stroke:none;" d="M59 111L58 113L60 113L59 111z"/>
<path style="fill:#5bc3cf; stroke:none;" d="M156 111L157 112L156 111z"/>
<path style="fill:#a1e4ee; stroke:none;" d="M177 111L178 112L177 111z"/>
<path style="fill:#5bc3cf; stroke:none;" d="M178 111L179 112L178 111z"/>
<path style="fill:#23bcc6; stroke:none;" d="M91 112L92 113L91 112M120 112L121 113L120 112M134.333 112.667L134.667 113.333L134.333 112.667z"/>
<path style="fill:#5bc3cf; stroke:none;" d="M158 112L161 114L161 113L158 112z"/>
<path style="fill:#a1e4ee; stroke:none;" d="M159 112L160 113L159 112M179 112L180 113L179 112z"/>
<path style="fill:#5bc3cf; stroke:none;" d="M180 112L181 113L180 112z"/>
<path style="fill:#23bcc6; stroke:none;" d="M191 112L190 116L193 116L194 112L191 112M199 112L199 113L204 114L204 112L199 112M57 113L57 128L58 128L57 113M63 113L63 116L64 116L63 113M111 113L112 119L121 115L121 114L113 115L113 113L111 113z"/>
<path style="fill:#21bfd6; stroke:none;" d="M158 113L159 114L158 113z"/>
<path style="fill:#a1e4ee; stroke:none;" d="M161 113L162 114L161 113M181 113L181 114L185 116L185 115L181 113z"/>
<path style="fill:#5bc3cf; stroke:none;" d="M182 113L183 114L182 113z"/>
<path style="fill:#23bcc6; stroke:none;" d="M185.667 113.333L186.333 113.667L185.667 113.333M80.3333 114.667L80.6667 115.333L80.3333 114.667M84 114L84 115L89 116L89 117L84 119L84 120C90.6101 117.166 94.1276 114.277 101 118C96.8051 112.968 90.1217 114.109 84 114M100 114L101 115L100 114M122 115L122 116L133 120L133 119L125 117L126 114L122 115z"/>
<path style="fill:#5bc3cf; stroke:none;" d="M162 114L162 115L168 118L168 117L162 114z"/>
<path style="fill:#a1e4ee; stroke:none;" d="M163 114L164 115L163 114z"/>
<path style="fill:#5bc3cf; stroke:none;" d="M184 114L185 115L184 114z"/>
<path style="fill:#23bcc6; stroke:none;" d="M188 114L189 115L188 114z"/>
<path style="fill:#21bfd6; stroke:none;" d="M89 115L90 116L89 115z"/>
<path style="fill:#5bc3cf; stroke:none;" d="M93 115L94 116L93 115z"/>
<path style="fill:#a1e4ee; stroke:none;" d="M94.6667 115.333L95.3333 115.667L94.6667 115.333z"/>
<path style="fill:#5bc3cf; stroke:none;" d="M96 115L96 116L100 118L96 115M116.667 115.333L117.333 115.667L116.667 115.333z"/>
<path style="fill:#a1e4ee; stroke:none;" d="M118.667 115.333L119.333 115.667L118.667 115.333z"/>
<path style="fill:#5bc3cf; stroke:none;" d="M120.667 115.333L121.333 115.667L120.667 115.333z"/>
<path style="fill:#a1e4ee; stroke:none;" d="M165 115L166 116L165 115z"/>
<path style="fill:#5bc3cf; stroke:none;" d="M185 115L186 116L185 115z"/>
<path style="fill:#23bcc6; stroke:none;" d="M186 115L187 116L186 115M206 115L207 116L206 115M68 116L68 118L73 117L68 116z"/>
<path style="fill:#5bc3cf; stroke:none;" d="M90 116L89 118L90 116z"/>
<path style="fill:#a1e4ee; stroke:none;" d="M91.6667 116.333L92.3333 116.667L91.6667 116.333M97 116L98 117L97 116z"/>
<path style="fill:#23bcc6; stroke:none;" d="M102 116L103 120L104 120L102 116z"/>
<path style="fill:#5bc3cf; stroke:none;" d="M115 116L116 117L115 116z"/>
<path style="fill:#a1e4ee; stroke:none;" d="M122 116L124 118L122 116z"/>
<path style="fill:#5bc3cf; stroke:none;" d="M123 116L124 117L123 116z"/>
<path style="fill:#23bcc6; stroke:none;" d="M154.667 116.333L155.333 116.667L154.667 116.333M164 116L165 117L164 116z"/>
<path style="fill:#a1e4ee; stroke:none;" d="M186 116L187 117L186 116z"/>
<path style="fill:#5bc3cf; stroke:none;" d="M187 116L187 117L190 118L187 116z"/>
<path style="fill:#a1e4ee; stroke:none;" d="M90 117L91 118L90 117M98 117L99 118L98 117M114.667 117.333L115.333 117.667L114.667 117.333z"/>
<path style="fill:#5bc3cf; stroke:none;" d="M124 117L125 118L124 117z"/>
<path style="fill:#a1e4ee; stroke:none;" d="M168 117L169 118L168 117M188 117L189 118L188 117z"/>
<path style="fill:#23bcc6; stroke:none;" d="M190 117L191 118L190 117M63 118L63 122L67 120L63 118z"/>
<path style="fill:#5bc3cf; stroke:none;" d="M87 118L88 119L87 118z"/>
<path style="fill:#a1e4ee; stroke:none;" d="M88 118L89 119L88 118M99 118L98 124L99 124L99 118z"/>
<path style="fill:#5bc3cf; stroke:none;" d="M113 118L113 122L114 122L113 118z"/>
<path style="fill:#a1e4ee; stroke:none;" d="M125 118L128 120L128 119L125 118z"/>
<path style="fill:#5bc3cf; stroke:none;" d="M126 118L127 119L126 118z"/>
<path style="fill:#23bcc6; stroke:none;" d="M134 118L135 119L134 118M165 118L166 119L165 118M168 118L168 119L178 124L178 123L168 118z"/>
<path style="fill:#5bc3cf; stroke:none;" d="M169 118L170 119L169 118z"/>
<path style="fill:#a1e4ee; stroke:none;" d="M170 118L171 119L170 118M190 118L191 119L190 118z"/>
<path style="fill:#5bc3cf; stroke:none;" d="M191 118L194 120L191 118z"/>
<path style="fill:#23bcc6; stroke:none;" d="M194 118L199 122L194 118z"/>
<path style="fill:#5bc3cf; stroke:none;" d="M85 119L86 120L85 119z"/>
<path style="fill:#a1e4ee; stroke:none;" d="M86 119L87 120L86 119z"/>
<path style="fill:#23bcc6; stroke:none;" d="M160 119L161 120L160 119z"/>
<path style="fill:#5bc3cf; stroke:none;" d="M171 119L172 120L171 119z"/>
<path style="fill:#a1e4ee; stroke:none;" d="M172 119L173 120L172 119z"/>
<path style="fill:#23bcc6; stroke:none;" d="M82 120L79 122L79 123L83 121L82 120z"/>
<path style="fill:#5bc3cf; stroke:none;" d="M83 120L82 122L83 120z"/>
<path style="fill:#a1e4ee; stroke:none;" d="M84 120L85 121L84 120z"/>
<path style="fill:#23bcc6; stroke:none;" d="M112.333 120.667L112.667 121.333L112.333 120.667z"/>
<path style="fill:#a1e4ee; stroke:none;" d="M129 120L131 122L129 120z"/>
<path style="fill:#5bc3cf; stroke:none;" d="M130 120L132 122L132 120L130 120M173 120L176 122L176 121L173 120z"/>
<path style="fill:#a1e4ee; stroke:none;" d="M174 120L175 121L174 120M193 120L193 121L196 122L193 120z"/>
<path style="fill:#5bc3cf; stroke:none;" d="M195 120L196 121L195 120z"/>
<path style="fill:#23bcc6; stroke:none;" d="M72 121L78 124L77 121L72 121z"/>
<path style="fill:#5bc3cf; stroke:none;" d="M73.6667 121.333L74.3333 121.667L73.6667 121.333z"/>
<path style="fill:#a1e4ee; stroke:none;" d="M83 121L84 122L83 121z"/>
<path style="fill:#23bcc6; stroke:none;" d="M100 121L99 125L100 125L100 121M132.667 121.333L133.333 121.667L132.667 121.333z"/>
<path style="fill:#5bc3cf; stroke:none;" d="M135 121L133 122L133 123L135 121M196 121L197 122L196 121z"/>
<path style="fill:#23bcc6; stroke:none;" d="M205 121L205 123L208 123L208 121L205 121z"/>
<path style="fill:#21bfd6; stroke:none;" d="M75 122L76 123L75 122z"/>
<path style="fill:#5bc3cf; stroke:none;" d="M80 122L81 123L80 122z"/>
<path style="fill:#a1e4ee; stroke:none;" d="M81 122L82 123L81 122z"/>
<path style="fill:#5bc3cf; stroke:none;" d="M99 122L100 123L99 122z"/>
<path style="fill:#a1e4ee; stroke:none;" d="M114 122L117 125L114 122M132 122L133 123L132 122M177 122L178 123L177 122M197 122L197 123L202 126L197 122z"/>
<path style="fill:#5bc3cf; stroke:none;" d="M198 122L198 123L202 125L198 122z"/>
<path style="fill:#23bcc6; stroke:none;" d="M200 122L202 124L202 122L200 122M72 123L73 124L72 123z"/>
<path style="fill:#5bc3cf; stroke:none;" d="M76 123L75 126L76 123M78 123L79 124L78 123z"/>
<path style="fill:#a1e4ee; stroke:none;" d="M79 123L80 124L79 123z"/>
<path style="fill:#23bcc6; stroke:none;" d="M113 123L114 124L113 123z"/>
<path style="fill:#5bc3cf; stroke:none;" d="M114 123L115 124L114 123z"/>
<path style="fill:#a1e4ee; stroke:none;" d="M134.667 123.333L135.333 123.667L134.667 123.333z"/>
<path style="fill:#5bc3cf; stroke:none;" d="M178 123L179 124L178 123z"/>
<path style="fill:#a1e4ee; stroke:none;" d="M179 123L180 124L179 123z"/>
<path style="fill:#23bcc6; stroke:none;" d="M63 124L64 130L65 130L63 124z"/>
<path style="fill:#a1e4ee; stroke:none;" d="M77 124L78 125L77 124M95 126L98 125L95 126z"/>
<path style="fill:#5bc3cf; stroke:none;" d="M101 124L102 125L101 124M115 124L116 125L115 124z"/>
<path style="fill:#23bcc6; stroke:none;" d="M161.333 124.667L161.667 125.333L161.333 124.667M179 124L179 125L185 128L185 127L179 124z"/>
<path style="fill:#5bc3cf; stroke:none;" d="M180 124L181 125L180 124z"/>
<path style="fill:#a1e4ee; stroke:none;" d="M181 124L182 125L181 124z"/>
<path style="fill:#23bcc6; stroke:none;" d="M202 124L199 134L202 135C203.812 130.95 206.458 127.153 202 124M74 125L75 126L74 125z"/>
<path style="fill:#a1e4ee; stroke:none;" d="M76 125L77 126L76 125z"/>
<path style="fill:#5bc3cf; stroke:none;" d="M96 125L97 126L96 125z"/>
<path style="fill:#23bcc6; stroke:none;" d="M97 125L94 127L94 128L97 125M102 125L103 126L102 125M105 125L103 131L108 130L105 125M115.667 125.333L116.333 125.667L115.667 125.333z"/>
<path style="fill:#5bc3cf; stroke:none;" d="M117 125L118 126L117 125z"/>
<path style="fill:#a1e4ee; stroke:none;" d="M118 125L119 126L118 125z"/>
<path style="fill:#5bc3cf; stroke:none;" d="M182 125L183 126L182 125z"/>
<path style="fill:#a1e4ee; stroke:none;" d="M183 125L184 126L183 125z"/>
<path style="fill:#23bcc6; stroke:none;" d="M71 126L70 129L71 126z"/>
<path style="fill:#5bc3cf; stroke:none;" d="M72.6667 126.333L73.3333 126.667L72.6667 126.333z"/>
<path style="fill:#a1e4ee; stroke:none;" d="M74 126L75 127L74 126M93 126L94 127L93 126z"/>
<path style="fill:#5bc3cf; stroke:none;" d="M94 126L95 127L94 126z"/>
<path style="fill:#23bcc6; stroke:none;" d="M111 126L112 129L114 129L115 126L111 126M118 126L119 127L118 126z"/>
<path style="fill:#5bc3cf; stroke:none;" d="M119 126L120 127L119 126z"/>
<path style="fill:#a1e4ee; stroke:none;" d="M120 126L121 127L120 126z"/>
<path style="fill:#23bcc6; stroke:none;" d="M171 127L171 128L178 130L179 126L171 127z"/>
<path style="fill:#5bc3cf; stroke:none;" d="M184 126L182 129L182 130C184.242 128.748 185.344 128.28 184 126z"/>
<path style="fill:#a1e4ee; stroke:none;" d="M185 126L186 127L185 126z"/>
<path style="fill:#5bc3cf; stroke:none;" d="M202 126L202 130L203 130L202 126z"/>
<path style="fill:#23bcc6; stroke:none;" d="M45 127L45 159L46 159L45 127z"/>
<path style="fill:#a1e4ee; stroke:none;" d="M72.6667 127.333L73.3333 127.667L72.6667 127.333M91 127L90 129L91 127z"/>
<path style="fill:#5bc3cf; stroke:none;" d="M91 129L94 128L91 129z"/>
<path style="fill:#21bfd6; stroke:none;" d="M113 127L114 128L113 127z"/>
<path style="fill:#23bcc6; stroke:none;" d="M120 127L123 133L127 132L127 131L120 127z"/>
<path style="fill:#5bc3cf; stroke:none;" d="M121 127L123 129L121 127z"/>
<path style="fill:#a1e4ee; stroke:none;" d="M122 127L123 128L122 127M186 127L187 128L186 127z"/>
<path style="fill:#5bc3cf; stroke:none;" d="M71 128L69 132L71 128z"/>
<path style="fill:#23bcc6; stroke:none;" d="M88 130L88 132L92 134L93 134L97 130L93 131L93 128L88 130z"/>
<path style="fill:#a1e4ee; stroke:none;" d="M123 128L123 129L128 131L128 130L123 128z"/>
<path style="fill:#23bcc6; stroke:none;" d="M146 128L146 133L147 133L146 128M148 128L151 132L151 128L148 128M154 128L154 131L156 131L156 128L154 128M165 128L166 129L165 128M179.667 128.333L180.333 128.667L179.667 128.333z"/>
<path style="fill:#a1e4ee; stroke:none;" d="M185 128L186 129L185 128z"/>
<path style="fill:#23bcc6; stroke:none;" d="M35 129L34 159L36 159L35 129z"/>
<path style="fill:#a1e4ee; stroke:none;" d="M71 129L72 130L71 129M88 129L89 130L88 129z"/>
<path style="fill:#5bc3cf; stroke:none;" d="M89 129L90 130L89 129M124 129L125 130L124 129z"/>
<path style="fill:#23bcc6; stroke:none;" d="M170 129L171 130L170 129M181 129L182 130L181 129z"/>
<path style="fill:#a1e4ee; stroke:none;" d="M183 129L184 130L183 129M201.333 129.667L201.667 130.333L201.333 129.667z"/>
<path style="fill:#23bcc6; stroke:none;" d="M67 132L70 130L67 132z"/>
<path style="fill:#a1e4ee; stroke:none;" d="M86.3333 130.667L86.6667 131.333L86.3333 130.667z"/>
<path style="fill:#5bc3cf; stroke:none;" d="M87.3333 130.667L87.6667 131.333L87.3333 130.667z"/>
<path style="fill:#21bfd6; stroke:none;" d="M90 130L93 132L90 130M93 130L94 131L93 130z"/>
<path style="fill:#5bc3cf; stroke:none;" d="M94 130L95 131L94 130M125.667 130.333L126.333 130.667L125.667 130.333z"/>
<path style="fill:#23bcc6; stroke:none;" d="M158 135L162 130L158 135M168 130L169 131L168 130M179 130L180 131L179 130z"/>
<path style="fill:#5bc3cf; stroke:none;" d="M180 130L181 131L180 130z"/>
<path style="fill:#a1e4ee; stroke:none;" d="M181 130L182 131L181 130z"/>
<path style="fill:#23bcc6; stroke:none;" d="M108 136C111.187 134.968 113.065 134.51 113 131L108 136z"/>
<path style="fill:#5bc3cf; stroke:none;" d="M127.667 131.333L128.333 131.667L127.667 131.333z"/>
<path style="fill:#a1e4ee; stroke:none;" d="M129 131L130 132L129 131z"/>
<path style="fill:#23bcc6; stroke:none;" d="M177 131L178 132L177 131z"/>
<path style="fill:#5bc3cf; stroke:none;" d="M178 131L179 132L178 131z"/>
<path style="fill:#a1e4ee; stroke:none;" d="M179 131L180 132L179 131M200 131L201 132L200 131z"/>
<path style="fill:#23bcc6; stroke:none;" d="M70 132L71 136L72 136L70 132z"/>
<path style="fill:#a1e4ee; stroke:none;" d="M71 132L72 133L71 132M88 132L89 133L88 132z"/>
<path style="fill:#5bc3cf; stroke:none;" d="M89 132L90 133L89 132z"/>
<path style="fill:#23bcc6; stroke:none;" d="M100 132L100 134L102 134L102 132L100 132M128 132L128 133L134 135L134 134L128 132z"/>
<path style="fill:#5bc3cf; stroke:none;" d="M130 132L131 133L130 132z"/>
<path style="fill:#a1e4ee; stroke:none;" d="M131 132L132 133L131 132z"/>
<path style="fill:#23bcc6; stroke:none;" d="M169 132L169 133L171 135L168 136L168 137L174 133L169 132M175 132L176 133L175 132z"/>
<path style="fill:#5bc3cf; stroke:none;" d="M176 132L177 133L176 132z"/>
<path style="fill:#a1e4ee; stroke:none;" d="M177 132L178 133L177 132M198 132L199 133L198 132z"/>
<path style="fill:#5bc3cf; stroke:none;" d="M199.667 132.333L200.333 132.667L199.667 132.333M71 133L72 134L71 133z"/>
<path style="fill:#a1e4ee; stroke:none;" d="M90 133L91 134L90 133z"/>
<path style="fill:#5bc3cf; stroke:none;" d="M91 133L92 134L91 133M132 133L133 134L132 133z"/>
<path style="fill:#23bcc6; stroke:none;" d="M150 133L150 135L152 133L150 133M168 133L169 134L168 133z"/>
<path style="fill:#5bc3cf; stroke:none;" d="M171 135L171 136L176 134L171 135z"/>
<path style="fill:#a1e4ee; stroke:none;" d="M196 133L197 134L196 133z"/>
<path style="fill:#5bc3cf; stroke:none;" d="M197.667 133.333L198.333 133.667L197.667 133.333z"/>
<path style="fill:#23bcc6; stroke:none;" d="M205 133L203 134L203 135L205 133M64 134L64 137L67 136L67 135L64 134z"/>
<path style="fill:#a1e4ee; stroke:none;" d="M72 134L74 136L74 134L72 134M92 134L93 135L92 134z"/>
<path style="fill:#5bc3cf; stroke:none;" d="M93 134L94 135L93 134z"/>
<path style="fill:#23bcc6; stroke:none;" d="M94 134L94 135L101 138L94 134z"/>
<path style="fill:#5bc3cf; stroke:none;" d="M134 134L135 135L134 134M145 134L139 137L139 138L145 134z"/>
<path style="fill:#a1e4ee; stroke:none;" d="M174 134L175 135L174 134M194 134L192 135L192 136L194 134z"/>
<path style="fill:#5bc3cf; stroke:none;" d="M195 134L194 136L195 134z"/>
<path style="fill:#23bcc6; stroke:none;" d="M192 136L192 137L200 135L192 136z"/>
<path style="fill:#5bc3cf; stroke:none;" d="M72 135L73 136L72 135z"/>
<path style="fill:#a1e4ee; stroke:none;" d="M94 135L95 136L94 135z"/>
<path style="fill:#5bc3cf; stroke:none;" d="M95 135L96 136L95 135M135 135L136 136L135 135z"/>
<path style="fill:#a1e4ee; stroke:none;" d="M136 135L136 136L140 137L140 136L136 135z"/>
<path style="fill:#23bcc6; stroke:none;" d="M145 135L146 136L145 135z"/>
<path style="fill:#a1e4ee; stroke:none;" d="M172 135L173 136L172 135z"/>
<path style="fill:#21bfd6; stroke:none;" d="M197 135L198 136L197 135z"/>
<path style="fill:#23bcc6; stroke:none;" d="M202 135L203 136L202 135M40 136L40 144L41 144L40 136M56 136L56 170L66 165L66 164L57 169L56 136M73 136C72.4916 139.299 73.1621 140.259 76 142L74 140L74 139L86 143L86 142L73 136z"/>
<path style="fill:#5bc3cf; stroke:none;" d="M74 136L77 138L77 137L74 136z"/>
<path style="fill:#a1e4ee; stroke:none;" d="M75.6667 136.333L76.3333 136.667L75.6667 136.333M96 136L97 137L96 136z"/>
<path style="fill:#5bc3cf; stroke:none;" d="M97 136L98 137L97 136z"/>
<path style="fill:#23bcc6; stroke:none;" d="M111 136L112 137L111 136M135.667 136.333L136.333 136.667L135.667 136.333z"/>
<path style="fill:#5bc3cf; stroke:none;" d="M137 136L138 137L137 136z"/>
<path style="fill:#a1e4ee; stroke:none;" d="M142 136L143 137L142 136z"/>
<path style="fill:#23bcc6; stroke:none;" d="M144 136L143 138L145 138L144 136z"/>
<path style="fill:#5bc3cf; stroke:none;" d="M169 136L170 137L169 136z"/>
<path style="fill:#a1e4ee; stroke:none;" d="M170 136L171 137L170 136M190 136L189 138L190 136z"/>
<path style="fill:#5bc3cf; stroke:none;" d="M191 136L190 138L192 138L191 136z"/>
<path style="fill:#23bcc6; stroke:none;" d="M206 136L206 138L208 138L208 136L206 136z"/>
<path style="fill:#a1e4ee; stroke:none;" d="M77 137L77 138L80 139L77 137M98 137L99 138L98 137z"/>
<path style="fill:#23bcc6; stroke:none;" d="M118 137L124 140L118 137M130 137L135 140L130 137M138 137L139 138L138 137M154.667 137.333L155.333 137.667L154.667 137.333M166 137L167 138L166 137z"/>
<path style="fill:#5bc3cf; stroke:none;" d="M167 137L168 138L167 137z"/>
<path style="fill:#a1e4ee; stroke:none;" d="M168 137L169 138L168 137z"/>
<path style="fill:#5bc3cf; stroke:none;" d="M78 138L79 139L78 138z"/>
<path style="fill:#a1e4ee; stroke:none;" d="M100 138L103 140L103 139L100 138z"/>
<path style="fill:#5bc3cf; stroke:none;" d="M101 138L102 139L101 138z"/>
<path style="fill:#23bcc6; stroke:none;" d="M102 138L103 139L102 138M155 139L156 142L138 151L138 152L149 145L165 139L155 139z"/>
<path style="fill:#5bc3cf; stroke:none;" d="M165 138L166 139L165 138z"/>
<path style="fill:#a1e4ee; stroke:none;" d="M166 138L167 139L166 138M186 138L185 140L186 138z"/>
<path style="fill:#5bc3cf; stroke:none;" d="M187 138L188 139L187 138z"/>
<path style="fill:#23bcc6; stroke:none;" d="M188 138L189 141L191 141L192 138L188 138z"/>
<path style="fill:#21bfd6; stroke:none;" d="M189 138L190 139L189 138z"/>
<path style="fill:#23bcc6; stroke:none;" d="M200 140L200 141L205 142L204 138L200 140z"/>
<path style="fill:#5bc3cf; stroke:none;" d="M80 139L81 140L80 139z"/>
<path style="fill:#a1e4ee; stroke:none;" d="M81 139L82 140L81 139z"/>
<path style="fill:#5bc3cf; stroke:none;" d="M103 139L103 140L107 142L107 141L103 139z"/>
<path style="fill:#23bcc6; stroke:none;" d="M104 139L105 140L104 139z"/>
<path style="fill:#5bc3cf; stroke:none;" d="M163 139L164 140L163 139z"/>
<path style="fill:#a1e4ee; stroke:none;" d="M164 139L165 140L164 139z"/>
<path style="fill:#5bc3cf; stroke:none;" d="M186 139L187 140L186 139M82 140L83 141L82 140z"/>
<path style="fill:#a1e4ee; stroke:none;" d="M83 140L84 141L83 140z"/>
<path style="fill:#23bcc6; stroke:none;" d="M142.333 140.667L142.667 141.333L142.333 140.667z"/>
<path style="fill:#5bc3cf; stroke:none;" d="M161 140L162 141L161 140z"/>
<path style="fill:#a1e4ee; stroke:none;" d="M162 140L163 141L162 140M181 142L184 141L181 142z"/>
<path style="fill:#5bc3cf; stroke:none;" d="M184 140L185 141L184 140z"/>
<path style="fill:#23bcc6; stroke:none;" d="M69 141L68 144L69 141z"/>
<path style="fill:#5bc3cf; stroke:none;" d="M84 141L85 142L84 141z"/>
<path style="fill:#a1e4ee; stroke:none;" d="M85 141L86 142L85 141M105 141L106 142L105 141z"/>
<path style="fill:#23bcc6; stroke:none;" d="M152 141L153 142L152 141z"/>
<path style="fill:#5bc3cf; stroke:none;" d="M157 143L160 142L157 143z"/>
<path style="fill:#a1e4ee; stroke:none;" d="M160 141L161 142L160 141z"/>
<path style="fill:#5bc3cf; stroke:none;" d="M182 141L183 142L182 141z"/>
<path style="fill:#23bcc6; stroke:none;" d="M183 141L184 142L183 141M187.667 141.333L188.333 141.667L187.667 141.333M190 143L195 144L190 143M78 142L81 144L78 142z"/>
<path style="fill:#5bc3cf; stroke:none;" d="M86 142L87 143L86 142z"/>
<path style="fill:#a1e4ee; stroke:none;" d="M87 142L87 143L93 146L93 145L87 142M107 142L108 143L107 142z"/>
<path style="fill:#5bc3cf; stroke:none;" d="M108 142L109 143L108 142z"/>
<path style="fill:#23bcc6; stroke:none;" d="M109 142L109 143L124 150L124 149L109 142M136.667 142.333L137.333 142.667L136.667 142.333M144 145L148 142L144 145z"/>
<path style="fill:#a1e4ee; stroke:none;" d="M158 142L159 143L158 142M179 142L180 143L179 142z"/>
<path style="fill:#5bc3cf; stroke:none;" d="M180 142L178 143L178 144L180 142z"/>
<path style="fill:#23bcc6; stroke:none;" d="M181.667 142.333L182.333 142.667L181.667 142.333M185.667 142.333L186.333 142.667L185.667 142.333M87 143L88 144L87 143z"/>
<path style="fill:#a1e4ee; stroke:none;" d="M109 143L110 144L109 143z"/>
<path style="fill:#5bc3cf; stroke:none;" d="M110 143L111 144L110 143z"/>
<path style="fill:#23bcc6; stroke:none;" d="M139 143L139 145L141 143L139 143z"/>
<path style="fill:#5bc3cf; stroke:none;" d="M155 143L156 144L155 143z"/>
<path style="fill:#a1e4ee; stroke:none;" d="M156.667 143.333L157.333 143.667L156.667 143.333M177 143L178 144L177 143z"/>
<path style="fill:#23bcc6; stroke:none;" d="M180 143L181 144L180 143M184 143L185 144L184 143M188 143L189 144L188 143M88 144L86 147L86 148L102 152L102 151L88 144z"/>
<path style="fill:#5bc3cf; stroke:none;" d="M89 144L90 145L89 144z"/>
<path style="fill:#a1e4ee; stroke:none;" d="M111 144L112 145L111 144z"/>
<path style="fill:#5bc3cf; stroke:none;" d="M112 144L112 145L115 146L112 144z"/>
<path style="fill:#23bcc6; stroke:none;" d="M124 144L125 145L124 144z"/>
<path style="fill:#5bc3cf; stroke:none;" d="M153 144L154 145L153 144z"/>
<path style="fill:#a1e4ee; stroke:none;" d="M154.667 144.333L155.333 144.667L154.667 144.333M175 144L176 145L175 144z"/>
<path style="fill:#5bc3cf; stroke:none;" d="M176 144L174 145L174 146L176 144z"/>
<path style="fill:#23bcc6; stroke:none;" d="M177 144L177 145L180 145L177 144z"/>
<path style="fill:#5bc3cf; stroke:none;" d="M91 145L92 146L91 145z"/>
<path style="fill:#a1e4ee; stroke:none;" d="M113 145L114 146L113 145z"/>
<path style="fill:#23bcc6; stroke:none;" d="M128 145L129 146L128 145z"/>
<path style="fill:#21bfd6; stroke:none;" d="M149.667 145.333L150.333 145.667L149.667 145.333z"/>
<path style="fill:#a1e4ee; stroke:none;" d="M152.667 145.333L153.333 145.667L152.667 145.333M171 147L174 146L171 147z"/>
<path style="fill:#23bcc6; stroke:none;" d="M176 145L177 146L176 145z"/>
<path style="fill:#5bc3cf; stroke:none;" d="M93 146L94 147L93 146z"/>
<path style="fill:#a1e4ee; stroke:none;" d="M94 146L94 147L101 150L101 149L94 146M115 146L116 147L115 146z"/>
<path style="fill:#5bc3cf; stroke:none;" d="M116 146L117 147L116 146z"/>
<path style="fill:#23bcc6; stroke:none;" d="M140.667 146.333L141.333 146.667L140.667 146.333z"/>
<path style="fill:#21bfd6; stroke:none;" d="M147 146L144 148L144 149L148 147L147 146z"/>
<path style="fill:#5bc3cf; stroke:none;" d="M149 146L140 151L140 152L150 147L149 146z"/>
<path style="fill:#a1e4ee; stroke:none;" d="M150.667 146.333L151.333 146.667L150.667 146.333z"/>
<path style="fill:#5bc3cf; stroke:none;" d="M172 146L170 147L170 148L172 146z"/>
<path style="fill:#23bcc6; stroke:none;" d="M172 148L175 146L172 148z"/>
<path style="fill:#5bc3cf; stroke:none;" d="M95 147L96 148L95 147z"/>
<path style="fill:#a1e4ee; stroke:none;" d="M117 147L117 148L122 150L122 149L117 147z"/>
<path style="fill:#5bc3cf; stroke:none;" d="M118 147L119 148L118 147z"/>
<path style="fill:#23bcc6; stroke:none;" d="M125 147L126 148L125 147M136 147L137 148L136 147z"/>
<path style="fill:#a1e4ee; stroke:none;" d="M149 147L150 148L149 147M169 147L170 148L169 147z"/>
<path style="fill:#23bcc6; stroke:none;" d="M71 151L76 148L71 151M82 149L82 150L86 148L82 149M91 148L92 149L91 148z"/>
<path style="fill:#5bc3cf; stroke:none;" d="M97 148L98 149L97 148M120 148L121 149L120 148z"/>
<path style="fill:#a1e4ee; stroke:none;" d="M147 148L148 149L147 148M167 148L168 149L167 148z"/>
<path style="fill:#5bc3cf; stroke:none;" d="M168 148L166 149L166 150L168 148z"/>
<path style="fill:#23bcc6; stroke:none;" d="M169 148L169 149L172 149L169 148M173 149L173 150L176 151L176 148L173 149z"/>
<path style="fill:#5bc3cf; stroke:none;" d="M99 149L100 150L99 149M122 149L123 150L122 149z"/>
<path style="fill:#23bcc6; stroke:none;" d="M127 149L128 150L127 149z"/>
<path style="fill:#a1e4ee; stroke:none;" d="M145 149L146 150L145 149M165 149L166 150L165 149z"/>
<path style="fill:#23bcc6; stroke:none;" d="M168 149L169 150L168 149M95 150L96 151L95 150z"/>
<path style="fill:#5bc3cf; stroke:none;" d="M101 150L104 152L104 151L101 150z"/>
<path style="fill:#a1e4ee; stroke:none;" d="M102 150L103 151L102 150M123 150L125 152L123 150z"/>
<path style="fill:#5bc3cf; stroke:none;" d="M124 150L124 151L130 154L130 153L124 150z"/>
<path style="fill:#23bcc6; stroke:none;" d="M125.667 150.333L126.333 150.667L125.667 150.333z"/>
<path style="fill:#a1e4ee; stroke:none;" d="M143 150L144 151L143 150M163 150L161 151L161 152L163 150z"/>
<path style="fill:#5bc3cf; stroke:none;" d="M164 150L163 152L164 150z"/>
<path style="fill:#23bcc6; stroke:none;" d="M162 152L162 153C165.536 153.618 167.91 154.189 170 151L166 152L167 150L162 152z"/>
<path style="fill:#a1e4ee; stroke:none;" d="M104 151L105 152L104 151z"/>
<path style="fill:#23bcc6; stroke:none;" d="M127 151L128 152L127 151z"/>
<path style="fill:#a1e4ee; stroke:none;" d="M141 151L142 152L141 151M55 152L55 159L56 159L55 152z"/>
<path style="fill:#23bcc6; stroke:none;" d="M90 152L91 153L90 152M103 152L103 153L110 156L110 155L103 152z"/>
<path style="fill:#5bc3cf; stroke:none;" d="M105 152L107 154L105 152z"/>
<path style="fill:#a1e4ee; stroke:none;" d="M106 152L107 153L106 152M126 152L127 153L126 152z"/>
<path style="fill:#23bcc6; stroke:none;" d="M134 154L137 152L134 154z"/>
<path style="fill:#5bc3cf; stroke:none;" d="M136 154L139 153L136 154z"/>
<path style="fill:#a1e4ee; stroke:none;" d="M139 152L140 153L139 152z"/>
<path style="fill:#5bc3cf; stroke:none;" d="M160 152L161 153L160 152z"/>
<path style="fill:#23bcc6; stroke:none;" d="M75 153L76 154L75 153M76 155C73.5419 159.5 69.7856 160.165 65 161L65 162L67 164C76.0165 160.115 82.7632 152.298 93 156C87.5424 150.887 82.3583 155.385 76 155M92 153L92 154L95 154L92 153z"/>
<path style="fill:#a1e4ee; stroke:none;" d="M107.667 153.333L108.333 153.667L107.667 153.333M128 153L129 154L128 153z"/>
<path style="fill:#23bcc6; stroke:none;" d="M130 153L130 154L133 154L130 153z"/>
<path style="fill:#a1e4ee; stroke:none;" d="M137 153L138 154L137 153M158 153L159 154L158 153z"/>
<path style="fill:#5bc3cf; stroke:none;" d="M159 153L160 154L159 153z"/>
<path style="fill:#23bcc6; stroke:none;" d="M72 154L73 155L72 154z"/>
<path style="fill:#5bc3cf; stroke:none;" d="M84 154L85 155L84 154z"/>
<path style="fill:#a1e4ee; stroke:none;" d="M85 154L86 155L85 154M88 154L89 155L88 154z"/>
<path style="fill:#5bc3cf; stroke:none;" d="M89 154L90 155L89 154M109 154L109 155L115 158L115 157L109 154z"/>
<path style="fill:#a1e4ee; stroke:none;" d="M110 154L111 155L110 154M130 154L131 155L130 154z"/>
<path style="fill:#5bc3cf; stroke:none;" d="M131 154L131 155L135 155L131 154z"/>
<path style="fill:#a1e4ee; stroke:none;" d="M135 154L136 155L135 154M156 154L157 155L156 154z"/>
<path style="fill:#5bc3cf; stroke:none;" d="M157 154L158 155L157 154z"/>
<path style="fill:#23bcc6; stroke:none;" d="M156 155L156 156L162 158L156 155z"/>
<path style="fill:#5bc3cf; stroke:none;" d="M82 155L83 156L82 155z"/>
<path style="fill:#a1e4ee; stroke:none;" d="M83.6667 155.333L84.3333 155.667L83.6667 155.333M90 155L91 156L90 155z"/>
<path style="fill:#5bc3cf; stroke:none;" d="M91 155L92 156L91 155z"/>
<path style="fill:#23bcc6; stroke:none;" d="M101.333 155.667L101.667 156.333L101.333 155.667z"/>
<path style="fill:#a1e4ee; stroke:none;" d="M132 155L132 156L135 156L132 155M154 155L155 156L154 155z"/>
<path style="fill:#5bc3cf; stroke:none;" d="M155 155L156 156L155 155z"/>
<path style="fill:#21bfd6; stroke:none;" d="M158 155L159 156L158 155z"/>
<path style="fill:#23bcc6; stroke:none;" d="M74 156L75 157L74 156z"/>
<path style="fill:#5bc3cf; stroke:none;" d="M80 156L77 158L77 159L81 157L80 156z"/>
<path style="fill:#a1e4ee; stroke:none;" d="M81.6667 156.333L82.3333 156.667L81.6667 156.333M92 156L93 157L92 156z"/>
<path style="fill:#5bc3cf; stroke:none;" d="M93 156L94 157L93 156z"/>
<path style="fill:#23bcc6; stroke:none;" d="M94 156L94 157L94 162C96.8796 159.904 97.0604 157.977 94 156M104 156L104 157L109 158L109 157L104 156M111 156L112 157L111 156z"/>
<path style="fill:#a1e4ee; stroke:none;" d="M113 156L114 157L113 156M152 156L153 157L152 156z"/>
<path style="fill:#5bc3cf; stroke:none;" d="M153 156L154 157L153 156z"/>
<path style="fill:#23bcc6; stroke:none;" d="M154 156L155 157L154 156z"/>
<path style="fill:#a1e4ee; stroke:none;" d="M80 157L81 158L80 157M94 157L95 158L94 157z"/>
<path style="fill:#5bc3cf; stroke:none;" d="M95 157L96 158L95 157z"/>
<path style="fill:#23bcc6; stroke:none;" d="M112 157L113 158L112 157z"/>
<path style="fill:#a1e4ee; stroke:none;" d="M115 157L116 158L115 157M150 157L151 158L150 157z"/>
<path style="fill:#5bc3cf; stroke:none;" d="M151 157L152 158L151 157z"/>
<path style="fill:#23bcc6; stroke:none;" d="M152 157L153 158L152 157z"/>
<path style="fill:#a1e4ee; stroke:none;" d="M78 158L79 159L78 158z"/>
<path style="fill:#23bcc6; stroke:none;" d="M111 158L112 159L111 158M114 158L114 159L120 161L119 163L128 168L132 167L132 166L125 165L114 158z"/>
<path style="fill:#5bc3cf; stroke:none;" d="M116 158L117 159L116 158z"/>
<path style="fill:#a1e4ee; stroke:none;" d="M117 158L118 159L117 158M148 158L149 159L148 158z"/>
<path style="fill:#5bc3cf; stroke:none;" d="M149 158L147 159L147 160L149 158z"/>
<path style="fill:#23bcc6; stroke:none;" d="M149 160L152 158L149 160M153 158L153 159L156 159L153 158M164 158L167 160L164 158z"/>
<path style="fill:#5bc3cf; stroke:none;" d="M45 159L45 176L46 176L45 159M75 159L76 160L75 159z"/>
<path style="fill:#a1e4ee; stroke:none;" d="M76 159L77 160L76 159z"/>
<path style="fill:#23bcc6; stroke:none;" d="M108.667 159.333L109.333 159.667L108.667 159.333M112 159L113 160L112 159z"/>
<path style="fill:#5bc3cf; stroke:none;" d="M118 159L119 160L118 159z"/>
<path style="fill:#a1e4ee; stroke:none;" d="M119 159L120 160L119 159M146 159L147 160L146 159z"/>
<path style="fill:#23bcc6; stroke:none;" d="M159 159L160 160L159 159z"/>
<path style="fill:#a1e4ee; stroke:none;" d="M55 160L55 171L56 171L55 160z"/>
<path style="fill:#23bcc6; stroke:none;" d="M63.6667 160.333L64.3333 160.667L63.6667 160.333z"/>
<path style="fill:#5bc3cf; stroke:none;" d="M73 160L72 162L73 160z"/>
<path style="fill:#a1e4ee; stroke:none;" d="M74 160L75 161L74 160M93 160L92 162L93 160z"/>
<path style="fill:#5bc3cf; stroke:none;" d="M94 160L95 161L94 160M120 160L121 161L120 160z"/>
<path style="fill:#a1e4ee; stroke:none;" d="M121 160L122 161L121 160M144 160L142 161L142 162L144 160z"/>
<path style="fill:#5bc3cf; stroke:none;" d="M145 160L146 161L145 160z"/>
<path style="fill:#23bcc6; stroke:none;" d="M144 161L144 162L144 163L149 161L144 161z"/>
<path style="fill:#21bfd6; stroke:none;" d="M68.6667 161.333L69.3333 161.667L68.6667 161.333z"/>
<path style="fill:#a1e4ee; stroke:none;" d="M73 161L74 162L73 161z"/>
<path style="fill:#5bc3cf; stroke:none;" d="M93 161L94 162L93 161M122 161L123 162L122 161z"/>
<path style="fill:#a1e4ee; stroke:none;" d="M123 161L124 162L123 161z"/>
<path style="fill:#21bfd6; stroke:none;" d="M145 161L146 162L145 161z"/>
<path style="fill:#23bcc6; stroke:none;" d="M60 162L60 164L62 164L62 162L60 162z"/>
<path style="fill:#5bc3cf; stroke:none;" d="M70 162L71 163L70 162z"/>
<path style="fill:#a1e4ee; stroke:none;" d="M71 162L72 163L71 162M90 162L91 163L90 162z"/>
<path style="fill:#5bc3cf; stroke:none;" d="M91 162L92 163L91 162z"/>
<path style="fill:#23bcc6; stroke:none;" d="M92 162L93 163L92 162z"/>
<path style="fill:#5bc3cf; stroke:none;" d="M121 162L122 163L121 162M124 162L126 165L127 164L124 162z"/>
<path style="fill:#a1e4ee; stroke:none;" d="M125 162L126 163L125 162M140 162L141 163L140 162z"/>
<path style="fill:#5bc3cf; stroke:none;" d="M141 162L139 163L139 164L141 162z"/>
<path style="fill:#23bcc6; stroke:none;" d="M142 162L143 163L142 162z"/>
<path style="fill:#5bc3cf; stroke:none;" d="M68 163L69 164L68 163z"/>
<path style="fill:#a1e4ee; stroke:none;" d="M69 163L70 164L69 163z"/>
<path style="fill:#5bc3cf; stroke:none;" d="M89 163L90 164L89 163z"/>
<path style="fill:#23bcc6; stroke:none;" d="M90.6667 163.333L91.3333 163.667L90.6667 163.333M94 163L96 165L94 163z"/>
<path style="fill:#a1e4ee; stroke:none;" d="M138 163L139 164L138 163z"/>
<path style="fill:#23bcc6; stroke:none;" d="M141 163L138 164C138 166.783 136.465 166.318 134 166L134 167C137.115 167.412 141.419 167.008 141 163M148.667 163.333L149.333 163.667L148.667 163.333z"/>
<path style="fill:#5bc3cf; stroke:none;" d="M66 164L65 166L66 164z"/>
<path style="fill:#a1e4ee; stroke:none;" d="M67.6667 164.333L68.3333 164.667L67.6667 164.333M85 166L88 165L85 166z"/>
<path style="fill:#23bcc6; stroke:none;" d="M88 164L89 165L88 164M112 167L116 164L112 167z"/>
<path style="fill:#5bc3cf; stroke:none;" d="M122 164L123 165L122 164z"/>
<path style="fill:#a1e4ee; stroke:none;" d="M128 164L128 165L132 166L132 165L128 164M136 164L134 165L134 166L136 164z"/>
<path style="fill:#5bc3cf; stroke:none;" d="M137 164L136 167L137 164z"/>
<path style="fill:#a1e4ee; stroke:none;" d="M66 165L67 166L66 165z"/>
<path style="fill:#5bc3cf; stroke:none;" d="M86 165L87 166L86 165M129 165L130 166L129 165z"/>
<path style="fill:#21bfd6; stroke:none;" d="M138 165L139 166L138 165z"/>
<path style="fill:#23bcc6; stroke:none;" d="M143 165L144 166L143 165M146 165L148 167L146 165z"/>
<path style="fill:#5bc3cf; stroke:none;" d="M61 168L64 167L61 168z"/>
<path style="fill:#a1e4ee; stroke:none;" d="M64 166L65 167L64 166M83 166L84 167L83 166z"/>
<path style="fill:#5bc3cf; stroke:none;" d="M84 166L85 167L84 166z"/>
<path style="fill:#23bcc6; stroke:none;" d="M85 166L86 167L85 166M89 166L89 168L91 168L91 166L89 166z"/>
<path style="fill:#5bc3cf; stroke:none;" d="M132.667 166.333L133.333 166.667L132.667 166.333z"/>
<path style="fill:#a1e4ee; stroke:none;" d="M62 167L63 168L62 167M81 167L82 168L81 167z"/>
<path style="fill:#5bc3cf; stroke:none;" d="M82 167L83 168L82 167z"/>
<path style="fill:#23bcc6; stroke:none;" d="M81 168L81 169L86 170L85 167L81 168M95 167C93.746 169.844 93.4018 171.101 96 173L95 167M120 167L121 168L120 167z"/>
<path style="fill:#5bc3cf; stroke:none;" d="M59 168L58 170L59 168z"/>
<path style="fill:#a1e4ee; stroke:none;" d="M60 168L61 169L60 168z"/>
<path style="fill:#5bc3cf; stroke:none;" d="M80 168L81 169L80 168z"/>
<path style="fill:#23bcc6; stroke:none;" d="M86.6667 168.333L87.3333 168.667L86.6667 168.333z"/>
<path style="fill:#a1e4ee; stroke:none;" d="M59 169L60 170L59 169M78 169L79 170L78 169z"/>
<path style="fill:#5bc3cf; stroke:none;" d="M79 169L80 170L79 169M56 170L57 171L56 170z"/>
<path style="fill:#a1e4ee; stroke:none;" d="M57 170L58 171L57 170M76 170L77 171L76 170z"/>
<path style="fill:#5bc3cf; stroke:none;" d="M77 170L75 171L75 172L77 170z"/>
<path style="fill:#23bcc6; stroke:none;" d="M78 170L79 171L78 170M120 171L120 172L131 176C128.552 171.665 124.832 169.504 120 171z"/>
<path style="fill:#a1e4ee; stroke:none;" d="M74 171L75 172L74 171z"/>
<path style="fill:#23bcc6; stroke:none;" d="M77 171L78 172L77 171z"/>
<path style="fill:#a1e4ee; stroke:none;" d="M72 172L71 174L72 172z"/>
<path style="fill:#5bc3cf; stroke:none;" d="M73 172L72 174L74 174L73 172z"/>
<path style="fill:#23bcc6; stroke:none;" d="M74.6667 172.333L75.3333 172.667L74.6667 172.333M134.667 172.333L135.333 172.667L134.667 172.333M142.333 173.667L142.667 174.333L142.333 173.667z"/>
<path style="fill:#a1e4ee; stroke:none;" d="M69 174L70 175L69 174z"/>
<path style="fill:#5bc3cf; stroke:none;" d="M70 174L63 178L63 179L71 175L70 174z"/>
<path style="fill:#23bcc6; stroke:none;" d="M71 174L72 175L71 174M73.6667 174.333L74.3333 174.667L73.6667 174.333M78 174L78 176L81 176L81 174L78 174M84 174L84 176L86 176L86 174L84 174z"/>
<path style="fill:#a1e4ee; stroke:none;" d="M67 175L68 176L67 175z"/>
<path style="fill:#23bcc6; stroke:none;" d="M70 175L71 176L70 175M90 175L91 176L90 175M40 176L40 179L41 179L40 176z"/>
<path style="fill:#a1e4ee; stroke:none;" d="M45 176L45 180L46 180L45 176M65 176L66 177L65 176z"/>
<path style="fill:#23bcc6; stroke:none;" d="M62 179L69 181L70 176L62 179M34 177L34 184L35 184L36 177L34 177M44 177C44.0974 181.142 44.3723 184.593 48 187L44 177z"/>
<path style="fill:#a1e4ee; stroke:none;" d="M62 178L63 179L62 178M60 179L61 180L60 179z"/>
<path style="fill:#5bc3cf; stroke:none;" d="M61.3333 179.667L61.6667 180.333L61.3333 179.667M45.3333 180.667L45.6667 181.333L45.3333 180.667z"/>
<path style="fill:#a1e4ee; stroke:none;" d="M58 180L57 182L58 180z"/>
<path style="fill:#5bc3cf; stroke:none;" d="M59 180L58 182L59 180z"/>
<path style="fill:#23bcc6; stroke:none;" d="M60 180L59 182L61 182L60 180M40.3333 182.667L40.6667 183.333L40.3333 182.667z"/>
<path style="fill:#a1e4ee; stroke:none;" d="M46 182L48 184L46 182M53 184L56 183L53 184z"/>
<path style="fill:#5bc3cf; stroke:none;" d="M56 182L57 183L56 182z"/>
<path style="fill:#23bcc6; stroke:none;" d="M57.6667 182.333L58.3333 182.667L57.6667 182.333z"/>
<path style="fill:#5bc3cf; stroke:none;" d="M46 183L47 184L46 183M54 183L55 184L54 183z"/>
<path style="fill:#23bcc6; stroke:none;" d="M53 184L53 185L57 184L53 184M63 183L64 184L63 183M66.6667 183.333L67.3333 183.667L66.6667 183.333z"/>
<path style="fill:#5bc3cf; stroke:none;" d="M47 184L47 185L53 185L53 184L47 184z"/>
<path style="fill:#a1e4ee; stroke:none;" d="M49 184L49 185L52 185L49 184z"/>
<path style="fill:#23bcc6; stroke:none;" d="M50 186L50 187L58 188L50 186M62 189L63 192L62 189M48 190L48 191L52 192L52 191L48 190z"/>
</svg>
