 <svg version="1.0" xmlns="http://www.w3.org/2000/svg" width="224" height="224" viewBox="0 0 700.000000 700.000000" preserveAspectRatio="xMidYMid meet">
 
<metadata>
Created by potrace 1.12, written by Peter Selinger 2001-2015
</metadata>
<g transform="translate(0.000000,700.000000) scale(0.100000,-0.100000)" fill="#000000" stroke="none">
<path d="M2149 5233 c0 -5 0 -786 0 -1738 l1 -1730 427 -3 c235 -1 431 2 435
6 8 8 10 2171 3 2542 -2 97 1 160 7 167 8 10 88 13 338 13 353 0 362 -1 519
-63 53 -21 151 -105 151 -129 0 -6 7 -19 15 -28 39 -43 68 -411 39 -492 -8
-22 -14 -51 -14 -63 0 -30 -48 -117 -86 -158 -41 -43 -137 -93 -205 -106 -30
-6 -76 -16 -103 -21 -27 -6 -96 -9 -153 -8 -57 1 -107 -3 -111 -8 -4 -5 -5
-178 -2 -384 l5 -375 95 0 c225 0 516 15 561 30 25 8 65 17 90 21 62 9 152 39
222 74 33 16 66 30 72 30 7 0 20 9 30 20 10 11 25 20 33 20 18 0 135 91 180
139 32 35 92 117 92 127 0 2 15 26 33 52 56 83 92 169 107 257 5 28 14 66 19
85 7 22 11 180 11 431 0 327 -3 404 -15 439 -8 23 -15 55 -15 71 0 29 -63 166
-131 284 -61 107 -200 230 -344 304 -42 22 -82 44 -89 49 -17 13 -96 40 -136
47 -19 3 -39 10 -45 15 -5 4 -39 13 -75 20 -36 6 -87 18 -114 26 -27 8 -70 14
-95 14 -25 0 -81 7 -124 15 -66 13 -206 15 -853 15 -426 0 -774 -3 -775 -7z
m2391 -2203 c0 -5 -5 -10 -11 -10 -5 0 -7 5 -4 10 3 6 8 10 11 10 2 0 4 -4 4
-10z"></path>
</g>
</svg>