 <svg version="1.0" xmlns="http://www.w3.org/2000/svg" width="300" height="300" viewBox="0 0 700.000000 700.000000" preserveAspectRatio="xMidYMid meet">
<metadata>
Created by potrace 1.12, written by Peter Selinger 2001-2015
</metadata>
<g transform="translate(0.000000,700.000000) scale(0.100000,-0.100000)" fill="#000000" stroke="none">
<path d="M5663 5889 c-81 -9 -124 -32 -195 -101 -46 -45 -72 -80 -100 -138
-14 -28 -17 -65 -18 -195 -1 -119 -4 -166 -15 -185 -20 -35 -19 -202 1 -302
20 -99 62 -180 122 -237 49 -46 133 -89 192 -100 39 -7 46 -22 35 -77 -5 -28
-12 -36 -36 -41 -35 -7 -47 -22 -28 -35 16 -10 141 -4 163 9 15 8 93 96 121
136 15 22 19 22 363 23 355 1 425 7 494 42 94 48 148 113 178 213 18 58 20 96
20 380 0 344 -2 356 -58 439 -56 82 -143 147 -222 163 -58 12 -922 18 -1017 6z
m385 -311 c40 -43 29 -140 -43 -406 -19 -70 -15 -92 14 -92 38 0 56 46 56 145
0 88 1 90 25 93 13 2 41 -1 61 -7 31 -9 44 -8 84 9 26 11 55 20 64 20 15 0 17
7 13 48 -3 35 1 60 17 94 32 66 61 90 118 95 60 5 98 -17 142 -82 35 -52 37
-68 17 -117 -15 -35 -36 -120 -61 -252 -16 -82 -35 -116 -65 -116 -27 0 -30
33 -9 112 11 40 21 93 22 118 l2 45 -60 3 c-32 2 -66 8 -73 15 -11 9 -17 7
-28 -8 -8 -10 -14 -22 -14 -25 0 -7 -87 -53 -131 -69 -19 -7 -28 -19 -33 -44
-13 -69 -72 -158 -123 -185 -12 -7 -38 -12 -58 -12 -28 0 -38 5 -47 25 -14 30
-43 33 -58 5 -6 -11 -29 -29 -51 -40 -46 -24 -112 -20 -162 9 -37 21 -42 47
-28 157 14 120 15 113 -14 124 -14 5 -30 22 -36 37 -13 34 5 54 58 62 l38 6 5
70 c6 81 12 95 45 95 31 0 59 -50 51 -92 -8 -40 14 -45 71 -17 37 19 49 31 54
54 13 58 40 106 72 125 40 25 39 25 65 -2z"></path>
<path d="M6416 5469 c-28 -30 -35 -45 -30 -62 15 -49 45 -60 88 -32 31 20 54
98 36 120 -22 26 -56 17 -94 -26z"></path>
<path d="M5980 5388 c0 -19 2 -20 10 -8 13 19 13 30 0 30 -5 0 -10 -10 -10
-22z"></path>
<path d="M5789 5296 c-29 -20 -40 -37 -59 -97 -34 -108 -36 -140 -10 -166 11
-13 28 -23 36 -23 8 0 39 23 68 50 29 28 58 50 63 50 6 0 13 6 16 14 8 19 -4
136 -14 142 -5 3 -9 16 -9 30 0 20 -5 24 -28 24 -15 0 -43 -11 -63 -24z"></path>
<path d="M2860 5636 c-117 -28 -167 -44 -200 -63 -14 -8 -40 -21 -59 -29 -71
-32 -286 -227 -318 -288 -7 -13 -19 -26 -26 -29 -15 -6 -107 -158 -107 -177 0
-7 -7 -24 -15 -38 -9 -15 -23 -49 -33 -75 -20 -56 -1 -46 -277 -142 -99 -34
-238 -84 -310 -111 -174 -66 -172 -58 -74 -284 15 -36 37 -96 49 -135 11 -38
29 -97 40 -130 31 -100 33 -129 10 -155 -11 -13 -21 -35 -21 -49 -1 -14 -3
-33 -4 -41 -1 -8 -3 -20 -4 -26 -2 -15 -66 -41 -118 -49 -37 -6 -45 -3 -65 18
-34 38 -156 87 -216 87 -63 0 -145 -47 -201 -114 -31 -39 -40 -60 -50 -117 -8
-48 -8 -76 -1 -89 5 -10 10 -33 10 -50 0 -48 96 -145 163 -165 64 -19 120 -19
184 0 49 15 62 26 181 159 9 10 26 22 37 27 11 6 31 17 45 25 39 23 89 9 133
-37 39 -40 71 -107 109 -229 24 -78 76 -217 90 -245 6 -11 17 -40 24 -65 14
-50 42 -127 67 -180 8 -19 23 -57 32 -84 30 -93 20 -88 163 -86 183 2 192 2
192 -13 0 -24 -80 -66 -139 -72 -31 -3 -67 -11 -81 -18 l-25 -13 2 -194 c2
-236 9 -390 23 -530 5 -58 12 -225 15 -371 l4 -267 -25 -6 c-21 -6 -24 -9 -14
-21 9 -10 33 -15 77 -15 86 0 133 -24 161 -83 18 -38 28 -47 84 -69 77 -32
222 -81 303 -103 33 -9 84 -23 112 -31 51 -14 205 -36 211 -29 8 7 -31 101
-58 140 -30 43 -77 69 -106 58 -8 -3 -21 -21 -29 -40 -19 -44 -39 -38 -43 12
-3 35 5 57 55 157 12 25 18 88 8 88 -3 0 -33 -22 -67 -50 -34 -27 -65 -50 -69
-50 -4 0 -11 9 -14 21 -11 33 -76 141 -104 173 -48 54 -102 86 -142 86 -21 0
-44 7 -52 14 -34 34 -30 225 7 386 8 36 22 116 31 179 16 121 12 141 -27 141
-26 0 -58 18 -58 33 0 7 -11 35 -25 62 -13 28 -25 60 -25 73 0 33 38 28 70
-10 31 -37 55 -31 45 10 -7 28 -34 59 -78 87 -18 12 -27 25 -25 38 4 26 81 72
156 93 53 15 60 15 103 -3 51 -20 129 -85 129 -107 0 -8 5 -18 10 -21 14 -9
13 21 -2 45 -7 10 -9 22 -5 26 11 11 51 -22 68 -57 42 -87 59 -129 78 -184 11
-33 34 -91 52 -130 59 -128 81 -145 132 -105 l25 20 15 -23 c16 -22 16 -22 16
10 1 17 -3 34 -8 37 -4 3 -11 25 -15 48 -4 23 -10 47 -15 53 -4 5 -15 33 -25
60 -32 92 -124 284 -174 365 -13 20 -18 38 -13 43 5 5 120 10 254 11 236 1
246 2 269 22 32 30 152 90 217 108 79 23 192 21 264 -5 l60 -21 17 22 c10 13
25 21 36 18 29 -5 31 -63 4 -100 -27 -36 -19 -49 23 -37 17 5 162 12 320 16
227 5 290 4 297 -6 4 -7 5 -33 2 -58 -5 -48 5 -62 43 -63 34 -1 69 -41 110
-125 22 -44 45 -86 52 -93 7 -7 13 -22 13 -31 0 -10 7 -24 15 -31 8 -7 15 -18
15 -24 0 -7 11 -36 25 -64 14 -29 25 -55 25 -60 0 -4 9 -24 20 -44 21 -40 18
-68 -9 -68 -9 0 -27 -6 -40 -13 -23 -12 -23 -15 -25 -172 -2 -88 -6 -168 -10
-177 -10 -22 -37 -32 -48 -16 -5 7 -7 88 -4 180 l5 168 -27 7 c-32 8 -802 -6
-857 -15 -48 -9 -49 -23 -3 -37 45 -14 148 -82 155 -103 3 -9 11 -24 18 -32
47 -60 71 -226 40 -280 -8 -14 -14 -34 -15 -44 0 -10 -21 -44 -47 -74 -45 -52
-59 -61 -178 -112 -29 -12 -29 -13 -8 -21 12 -4 48 -4 80 1 32 6 86 10 121 10
35 0 105 5 155 10 51 6 155 14 232 18 l140 7 3 38 c2 20 7 37 12 37 19 0 50
-54 50 -87 0 -44 -21 -52 -165 -64 -60 -4 -149 -13 -197 -18 -48 -5 -169 -13
-270 -16 -493 -18 -551 -25 -503 -65 8 -7 15 -21 15 -31 0 -23 12 -24 51 -4
45 24 254 45 449 45 96 0 247 7 335 15 88 8 203 15 256 15 86 0 98 2 116 22
12 13 24 37 27 53 8 35 52 93 63 82 4 -4 7 -23 6 -42 -1 -19 2 -35 6 -35 3 0
23 14 43 30 35 29 37 34 44 110 3 44 10 80 15 80 4 0 18 -22 31 -50 13 -27 28
-50 34 -50 13 0 161 121 168 138 3 7 -23 40 -58 75 -44 43 -66 73 -71 97 -4
19 -11 40 -15 45 -4 6 -17 48 -29 95 -13 47 -26 99 -31 115 -5 17 -11 50 -15
75 -3 25 -10 54 -15 65 -4 11 -13 47 -20 80 -15 75 -29 122 -46 157 -8 14 -14
35 -14 45 0 10 -9 26 -20 36 -11 9 -20 24 -20 33 0 9 -11 30 -25 46 -64 75 17
81 171 12 42 -18 81 -71 89 -120 4 -21 11 -48 16 -59 5 -11 13 -51 18 -90 5
-38 17 -115 26 -170 9 -55 23 -145 30 -200 21 -156 28 -179 69 -220 34 -34 39
-36 54 -22 14 15 12 20 -21 57 -21 22 -37 49 -37 60 0 10 -5 29 -10 42 -9 20
-17 75 -49 328 -4 36 -13 88 -19 115 -6 28 -16 77 -23 110 -6 33 -15 74 -20
91 -11 36 -75 114 -94 114 -7 0 -18 6 -24 14 -15 18 -110 36 -228 42 -54 3
-100 7 -104 10 -4 2 -4 19 1 37 8 39 -2 72 -27 85 -10 5 -99 10 -197 10 -135
1 -181 4 -187 14 -7 10 -11 10 -21 0 -6 -6 -26 -12 -43 -12 -36 0 -88 48 -99
90 -3 14 -24 48 -45 75 -22 28 -47 62 -56 78 -15 26 -15 27 12 38 15 6 43 17
61 25 18 8 48 14 67 14 18 0 36 4 39 9 4 5 32 17 64 26 31 9 77 24 101 32 24
9 58 19 75 24 17 4 63 20 101 34 75 28 80 30 225 69 52 14 120 35 150 47 30
11 73 26 95 32 22 5 54 16 72 23 17 8 38 14 47 14 25 0 67 31 77 57 9 25 -6
131 -22 148 -5 5 -9 20 -9 34 0 13 -5 39 -12 57 -8 23 -9 45 -2 76 9 37 6 56
-22 143 -18 55 -33 114 -33 132 -1 17 -5 35 -11 38 -5 3 -10 18 -11 33 0 15
-15 72 -33 127 -31 91 -32 102 -20 127 15 29 60 53 133 69 24 5 57 21 73 34
16 14 34 25 39 25 15 0 58 76 68 121 5 23 7 56 4 75 -5 29 -9 33 -28 28 -13
-3 -26 -1 -29 5 -18 28 -100 -9 -152 -69 l-22 -25 -14 35 c-24 57 -65 98 -101
102 -26 2 -31 7 -29 23 5 30 48 60 121 84 58 20 66 20 87 6 13 -8 30 -15 38
-15 8 0 35 -13 59 -30 57 -38 63 -38 35 1 -49 67 -145 100 -215 76 -26 -9 -47
-11 -57 -5 -11 6 -18 5 -22 -6 -6 -15 -124 -101 -128 -94 -8 14 -26 78 -26 94
0 10 -6 31 -14 45 -7 14 -16 43 -20 64 -4 21 -14 48 -21 59 -8 12 -23 66 -34
120 -10 54 -24 103 -30 109 -6 6 -11 23 -11 38 0 15 -7 40 -15 55 -8 16 -15
39 -15 51 0 12 -10 33 -22 47 -22 25 -24 26 -63 11 -22 -8 -58 -14 -80 -15
-22 0 -56 -5 -75 -11 -80 -24 -185 -49 -204 -49 -12 0 -34 -7 -51 -16 -17 -9
-64 -19 -107 -22 -48 -3 -82 -10 -89 -18 -6 -8 -29 -14 -50 -14 -32 0 -49 9
-106 58 -129 110 -208 168 -253 186 -25 10 -54 26 -65 36 -11 10 -65 33 -120
51 -92 30 -112 33 -250 35 -129 3 -163 0 -245 -20z m324 -125 c17 -11 67 -26
111 -34 140 -27 178 -38 253 -73 40 -20 78 -34 83 -32 5 2 -4 18 -21 36 -38
42 -38 54 0 41 17 -6 30 -15 30 -20 0 -5 6 -9 13 -9 7 0 42 -27 77 -60 35 -33
81 -72 103 -87 l39 -27 86 22 c48 12 98 22 112 22 14 0 45 6 70 14 25 8 72 19
105 24 33 6 87 17 120 27 33 9 85 21 115 27 30 6 60 15 67 20 18 14 52 -8 59
-40 3 -15 9 -36 14 -47 14 -32 18 -100 8 -118 -15 -28 -44 -38 -73 -27 -22 8
-26 7 -23 -6 2 -9 15 -26 30 -37 l26 -20 36 22 35 22 11 -42 c6 -23 15 -49 20
-58 4 -9 16 -49 25 -90 9 -41 23 -84 31 -95 8 -11 14 -34 14 -51 0 -16 6 -50
14 -75 46 -141 146 -495 146 -514 0 -8 7 -27 15 -42 8 -16 15 -36 15 -46 0 -9
14 -58 30 -108 17 -50 30 -101 30 -111 0 -11 6 -32 14 -47 8 -15 17 -52 21
-83 l7 -57 -53 -17 c-30 -9 -67 -23 -84 -30 -32 -14 -121 -41 -167 -50 -16 -3
-28 -12 -28 -20 0 -12 9 -14 43 -9 23 4 50 11 59 15 29 15 56 10 63 -12 4 -12
2 -26 -4 -32 -17 -17 -13 -38 11 -64 27 -29 71 -30 98 -3 34 34 23 70 -14 45
-30 -21 -55 -18 -65 8 -13 33 4 57 42 57 30 1 31 1 13 15 -28 21 -8 37 39 33
35 -3 39 -6 51 -48 28 -92 45 -176 39 -197 -6 -25 -55 -51 -120 -64 -22 -4
-101 -28 -175 -52 -74 -25 -162 -52 -195 -62 -33 -9 -76 -23 -95 -30 -19 -8
-62 -21 -95 -31 -33 -9 -74 -22 -91 -29 -18 -8 -49 -17 -70 -20 -22 -4 -48
-10 -59 -15 -24 -10 -92 -28 -160 -42 -27 -5 -59 -15 -70 -21 -11 -6 -36 -14
-55 -18 -68 -15 -121 -29 -138 -38 -18 -9 -78 -26 -152 -42 -25 -5 -54 -15
-65 -21 -11 -6 -33 -15 -50 -19 -16 -4 -43 -12 -60 -17 -16 -6 -55 -17 -85
-25 -30 -8 -100 -29 -155 -45 -55 -17 -116 -34 -135 -38 -19 -3 -41 -10 -50
-15 -26 -14 -234 -79 -253 -79 -20 0 -57 55 -57 85 0 11 -6 32 -14 47 -8 15
-17 42 -21 60 -3 18 -13 48 -22 67 -12 27 -13 39 -4 53 9 15 7 24 -9 46 -11
15 -23 50 -26 77 -4 28 -13 60 -20 72 -8 12 -14 30 -14 40 0 10 -6 38 -14 63
-8 25 -21 68 -30 96 -9 29 -16 61 -16 72 0 11 -5 33 -12 49 -12 28 -27 85 -48
178 -6 28 -18 75 -26 105 -9 30 -22 78 -29 105 -8 28 -21 76 -29 108 -9 31
-23 82 -31 112 -8 30 -21 79 -30 108 -8 28 -22 79 -31 112 -9 33 -22 82 -30
109 -8 26 -14 57 -14 68 0 17 -38 145 -47 157 -2 3 -9 -4 -16 -14 -12 -16 -17
-16 -43 -4 -51 25 -39 86 14 72 25 -6 25 -5 18 38 -16 96 -18 92 54 106 36 6
97 19 135 27 39 8 95 20 125 27 30 6 72 18 93 25 20 8 51 14 68 14 17 0 54 6
82 14 29 7 88 21 132 30 118 25 199 42 305 66 52 11 115 25 140 30 168 35 193
43 226 72 19 17 34 35 34 42 0 14 -72 65 -125 89 -89 41 -187 67 -320 87 -96
14 -127 28 -123 54 8 56 128 86 192 47z m-650 -289 c3 -5 -16 -38 -43 -73 -41
-56 -77 -123 -95 -181 -4 -13 -16 -18 -41 -18 -32 0 -35 2 -35 30 0 53 65 163
128 217 35 31 75 42 86 25z m-404 -658 c11 -26 20 -54 20 -62 0 -9 6 -34 14
-57 13 -39 32 -104 62 -210 7 -27 25 -88 39 -135 44 -141 92 -313 99 -350 4
-19 13 -51 20 -70 14 -35 32 -95 61 -200 8 -30 30 -109 50 -174 26 -87 32
-122 24 -132 -12 -14 -70 -11 -174 8 -82 15 -105 32 -105 74 0 18 -6 51 -14
71 -8 21 -22 65 -31 98 -20 69 -41 138 -84 280 -17 55 -31 106 -31 114 0 7
-11 45 -24 84 -26 79 -56 179 -81 272 -21 77 -77 252 -85 265 -8 12 -31 7
-190 -41 -131 -40 -170 -46 -170 -28 1 19 34 41 105 69 33 13 64 28 70 32 5 4
15 8 23 8 7 0 32 8 55 19 23 10 83 33 132 51 50 18 99 36 110 41 20 8 50 16
72 18 7 0 21 -20 33 -45z m-357 -523 c26 -10 78 -101 103 -180 8 -25 18 -90
21 -144 6 -98 6 -98 -23 -128 -34 -36 -75 -59 -103 -59 -18 0 -20 4 -13 33 4
17 7 75 6 127 -1 117 -34 216 -89 270 -40 39 -45 67 -12 74 55 12 63 14 74 15
6 0 23 -3 36 -8z m-558 -210 c69 -32 115 -101 115 -173 0 -62 -294 -72 -390
-13 -5 3 -1 20 10 38 11 18 20 46 20 63 0 81 145 131 245 85z m354 -75 c9 -10
6 -17 -11 -28 -48 -30 -114 -57 -148 -60 -33 -3 -35 -1 -35 27 0 25 7 33 45
53 51 25 131 30 149 8z m639 -1606 c2 -14 -3 -27 -12 -32 -20 -11 -20 -37 0
-59 20 -22 11 -39 -21 -39 -30 0 -41 32 -30 88 12 64 56 94 63 42z m74 -18
c22 -47 9 -112 -22 -112 -31 0 -46 66 -26 113 8 20 19 37 23 37 4 0 16 -17 25
-38z m2519 -665 c21 -16 31 -81 15 -102 -7 -10 -21 -16 -32 -13 -16 3 -19 13
-22 66 -3 65 5 75 39 49z m-2278 -126 c38 -34 91 -129 86 -156 -2 -10 -11 -23
-21 -28 -24 -16 -42 3 -68 71 -12 31 -30 73 -41 93 -10 20 -19 39 -19 43 0 15
32 3 63 -23z m-17 -256 c19 -60 12 -82 -24 -71 -14 5 -22 19 -26 50 -14 89 24
105 50 21z"></path>
<path d="M4213 5093 c-7 -2 -13 -9 -13 -14 0 -12 51 -11 70 1 13 8 13 10 -2
10 -9 0 -22 2 -30 4 -7 3 -19 2 -25 -1z"></path>
<path d="M4095 5060 c-3 -6 0 -13 9 -16 23 -9 69 0 74 14 5 15 -74 17 -83 2z"></path>
<path d="M4278 5041 c-27 -4 -53 -12 -60 -19 -7 -7 -22 -12 -35 -12 -29 0
-100 -28 -137 -54 -43 -31 -126 -112 -126 -123 0 -5 -5 -14 -11 -20 -29 -29
-59 -130 -65 -222 -11 -185 41 -327 168 -454 85 -85 123 -106 242 -132 74 -17
82 -17 154 0 41 10 94 29 117 42 133 74 208 245 204 468 -1 74 -7 125 -15 141
-8 15 -14 31 -14 37 0 18 -73 120 -110 155 -19 17 -45 35 -57 38 -13 3 -23 9
-23 13 0 13 -104 49 -155 54 -64 7 -159 -9 -211 -33 -38 -19 -134 -117 -134
-138 0 -5 -7 -15 -15 -22 -8 -7 -15 -16 -15 -21 0 -13 34 -11 47 2 6 6 38 12
70 13 92 4 193 -51 193 -106 0 -30 -35 -38 -170 -38 -128 0 -131 1 -157 26
-25 25 -27 26 -40 8 -7 -10 -13 -22 -13 -27 0 -4 -4 -5 -10 -2 -15 9 -12 66 5
95 8 14 14 35 15 47 0 37 65 123 120 159 28 19 55 34 60 34 4 0 13 6 19 14 6
8 32 17 56 20 25 4 47 11 50 17 4 5 19 9 34 9 47 0 92 12 88 23 -4 14 -14 15
-69 8z m341 -300 c13 -18 21 -45 21 -68 0 -33 -4 -42 -25 -51 -14 -7 -34 -12
-44 -12 -24 0 -33 34 -15 57 7 10 14 37 14 61 0 51 19 56 49 13z"></path>
<path d="M3824 4857 c-12 -12 -24 -32 -28 -44 -4 -13 -11 -23 -15 -23 -10 0
-45 -94 -62 -161 -13 -57 11 -285 39 -364 17 -50 63 -137 88 -165 62 -72 142
-140 166 -140 7 0 25 -7 41 -14 69 -37 295 -69 327 -47 23 16 7 22 -100 37
-110 15 -204 54 -284 117 -51 39 -56 46 -112 130 -135 205 -147 451 -33 669
14 26 -4 29 -27 5z"></path>
<path d="M2395 4810 c-4 -6 7 -10 27 -10 25 0 29 3 18 10 -19 13 -37 13 -45 0z"></path>
<path d="M3000 4808 c-14 -6 -40 -13 -59 -17 -19 -3 -36 -12 -39 -19 -5 -17
49 -16 74 3 11 8 42 14 75 15 31 0 71 3 90 7 28 5 30 7 14 14 -29 11 -126 9
-155 -3z"></path>
<path d="M2462 4774 c1 -9 9 -19 16 -22 9 -3 13 2 10 14 -1 9 -9 19 -16 22 -9
3 -13 -2 -10 -14z"></path>
<path d="M3024 4745 c-10 -8 -29 -15 -41 -15 -29 0 -108 -43 -160 -86 -96 -80
-162 -221 -171 -364 -14 -226 152 -490 351 -560 120 -42 288 -36 382 15 75 40
174 159 191 231 4 16 10 34 14 39 4 6 13 55 19 110 11 99 7 143 -25 280 -11
49 -94 165 -141 198 -24 17 -43 34 -43 39 0 4 -13 8 -28 8 -15 0 -32 4 -37 9
-11 10 -105 31 -174 39 -56 6 -152 -22 -213 -62 -26 -17 -69 -61 -97 -98 -70
-92 -68 -104 8 -67 48 23 104 21 194 -8 38 -13 52 -23 67 -53 32 -63 21 -69
-157 -72 -84 -1 -156 1 -160 5 -3 4 -10 26 -13 50 l-7 42 -8 -31 c-7 -30 -50
-63 -63 -49 -3 3 0 29 7 58 34 136 110 236 208 275 32 13 73 30 91 38 20 9 67
14 122 14 73 0 90 3 90 15 0 21 -177 22 -206 0z m477 -295 c36 -67 19 -116
-41 -122 -30 -3 -35 0 -38 19 -2 12 4 33 13 47 11 17 15 35 11 51 -14 56 26
60 55 5z"></path>
<path d="M2356 4713 c7 -33 39 -63 66 -63 11 0 33 13 49 29 46 46 33 83 -15
46 -25 -19 -50 -19 -66 0 -21 26 -41 19 -34 -12z"></path>
<path d="M3285 4710 c3 -5 13 -10 21 -10 8 0 14 5 14 10 0 6 -9 10 -21 10 -11
0 -17 -4 -14 -10z"></path>
<path d="M2680 4620 c0 -6 -18 -27 -40 -47 -41 -38 -89 -126 -109 -198 -6 -22
-11 -92 -11 -155 0 -90 4 -128 20 -173 11 -31 20 -63 20 -72 0 -17 9 -35 59
-115 76 -124 205 -223 324 -251 20 -5 56 -13 80 -19 51 -11 224 -12 252 0 19
7 18 8 -5 13 -14 3 -50 8 -80 11 -71 5 -167 25 -205 42 -99 43 -126 58 -172
97 -123 105 -172 192 -210 377 -22 107 -27 185 -13 238 15 61 90 232 101 232
5 0 9 7 9 15 0 8 -4 15 -10 15 -5 0 -10 -5 -10 -10z"></path>
<path d="M4827 4033 c-13 -12 -7 -23 12 -23 28 0 52 11 45 21 -6 10 -48 12
-57 2z"></path>
<path d="M4880 3950 c-8 -5 -25 -10 -38 -10 -18 0 -23 -5 -20 -22 2 -19 10
-24 40 -26 32 -3 39 1 52 26 20 39 3 56 -34 32z"></path>
<path d="M4448 3933 c7 -3 16 -2 19 1 4 3 -2 6 -13 5 -11 0 -14 -3 -6 -6z"></path>
<path d="M4645 3603 c-11 -3 -24 -9 -30 -13 -5 -4 -27 -10 -47 -14 -21 -4 -40
-11 -43 -16 -10 -16 62 -11 79 5 8 8 28 15 43 15 16 0 38 7 49 15 18 14 18 14
-6 14 -14 -1 -34 -4 -45 -6z"></path>
<path d="M4420 3530 c0 -13 50 -13 70 0 11 7 4 10 -27 10 -24 0 -43 -4 -43
-10z"></path>
<path d="M4327 3513 c-26 -7 -14 -28 14 -25 37 4 51 11 44 22 -6 10 -26 11
-58 3z"></path>
<path d="M4200 3468 c-19 -5 -49 -12 -67 -15 -18 -3 -38 -11 -44 -19 -6 -8
-26 -14 -43 -14 -17 0 -38 -5 -46 -10 -11 -7 -3 -10 31 -10 25 0 49 4 55 9 14
13 73 21 79 11 11 -17 25 -11 37 15 8 18 19 25 39 25 15 0 31 5 34 10 8 12
-28 11 -75 -2z"></path>
<path d="M4447 3474 c-12 -12 4 -24 33 -24 22 0 28 4 24 15 -6 15 -45 21 -57
9z"></path>
<path d="M4390 3416 c-20 -52 11 -96 67 -96 54 0 109 72 73 95 -5 3 -10 -1
-10 -9 0 -20 -45 -50 -65 -43 -8 4 -21 22 -29 42 -18 41 -23 43 -36 11z"></path>
<path d="M2816 3364 c-22 -19 -35 -24 -57 -19 -31 7 -38 -6 -20 -34 14 -21 76
-19 101 4 20 18 27 59 12 68 -4 3 -20 -6 -36 -19z"></path>
<path d="M3877 3383 c-14 -13 -6 -23 17 -23 33 0 57 10 50 21 -6 10 -57 12
-67 2z"></path>
<path d="M3760 3347 l-25 -11 29 -4 c35 -4 76 5 76 18 0 13 -49 12 -80 -3z"></path>
<path d="M3976 3321 c-6 -10 16 -21 41 -21 13 0 13 3 3 15 -14 17 -36 20 -44
6z"></path>
<path d="M3610 3305 c-7 -8 -25 -15 -41 -15 -15 0 -31 -4 -34 -10 -9 -15 23
-12 80 6 89 29 94 33 49 33 -25 1 -46 -5 -54 -14z"></path>
<path d="M3919 3307 c-28 -21 -41 -55 -29 -76 30 -58 106 -79 134 -39 27 38
18 76 -11 47 -6 -6 -23 -9 -39 -7 -23 2 -30 9 -32 31 -2 16 2 35 9 43 15 18
-8 19 -32 1z"></path>
<path d="M3400 3250 c0 -13 50 -13 70 0 11 7 4 10 -27 10 -24 0 -43 -4 -43
-10z"></path>
<path d="M3305 3220 c-4 -6 8 -10 29 -10 19 0 38 5 41 10 4 6 -8 10 -29 10
-19 0 -38 -4 -41 -10z"></path>
<path d="M3195 3191 c-3 -5 -2 -12 3 -15 12 -7 52 4 52 15 0 12 -47 12 -55 0z"></path>
<path d="M3422 3150 c-15 -33 -19 -56 -14 -68 5 -9 15 -30 23 -46 8 -16 22
-34 31 -40 37 -23 108 52 108 115 0 36 -5 36 -37 -1 -33 -40 -67 -40 -83 0
-16 39 -8 58 27 62 37 4 36 22 -2 26 -28 3 -33 -1 -53 -48z"></path>
<path d="M3083 3163 c-7 -2 -13 -9 -13 -14 0 -11 81 -1 95 12 10 9 -60 11 -82
2z"></path>
<path d="M2964 3125 c-10 -8 -33 -15 -51 -15 -39 0 -65 -9 -57 -21 9 -15 71
-10 88 6 8 8 25 15 38 15 34 0 68 11 68 21 0 15 -65 10 -86 -6z"></path>
<path d="M2780 3071 c-16 -4 -21 -9 -13 -14 16 -10 65 2 57 14 -6 10 -8 10
-44 0z"></path>
<path d="M2953 3028 c2 -7 10 -13 17 -13 7 0 15 6 18 13 2 7 -5 12 -18 12 -13
0 -20 -5 -17 -12z"></path>
<path d="M2888 2979 c-10 -17 -18 -36 -18 -43 0 -21 33 -44 65 -46 54 -4 64 0
81 25 22 33 9 51 -22 31 -47 -32 -90 -8 -77 42 8 32 -9 27 -29 -9z"></path>
<path d="M3848 2623 c6 -2 18 -2 25 0 6 3 1 5 -13 5 -14 0 -19 -2 -12 -5z"></path>
<path d="M4193 2523 c-22 -8 -15 -27 59 -170 39 -76 82 -159 95 -185 23 -46
45 -60 59 -37 5 9 -10 50 -37 99 -5 8 -17 33 -26 55 -14 34 -40 85 -110 218
-15 27 -18 29 -40 20z"></path>
<path d="M3515 2510 c-18 -28 55 -179 88 -180 13 0 8 45 -8 66 -8 10 -15 27
-15 38 0 22 -38 86 -50 86 -5 0 -11 -4 -15 -10z"></path>
<path d="M3140 2485 c0 -13 14 -54 32 -91 30 -62 51 -85 65 -70 6 6 -17 70
-54 154 -17 38 -43 43 -43 7z"></path>
<path d="M3855 2489 c-7 -22 -1 -35 87 -199 22 -41 49 -93 61 -115 26 -51 46
-75 64 -75 19 0 5 46 -40 135 -6 11 -27 53 -48 93 -20 40 -41 78 -47 85 -5 6
-13 23 -17 37 -8 27 -33 60 -46 60 -4 0 -11 -10 -14 -21z"></path>
<path d="M4910 2419 c0 -6 9 -30 19 -53 20 -42 76 -218 87 -271 6 -30 6 -30
17 -7 8 17 7 38 -2 75 -6 29 -16 76 -21 105 -12 62 -60 156 -83 160 -10 2 -17
-2 -17 -9z"></path>
<path d="M4670 2385 c0 -55 119 -283 141 -269 14 8 10 40 -6 54 -8 7 -15 20
-15 30 0 10 -6 23 -14 29 -8 7 -18 26 -21 42 -4 16 -11 29 -16 29 -5 0 -9 5
-9 11 0 6 -9 22 -20 36 -11 14 -20 34 -20 44 0 11 -4 19 -10 19 -5 0 -10 -11
-10 -25z"></path>
<path d="M3295 2322 c-25 -6 -27 -9 -12 -15 27 -10 190 -8 207 3 11 7 8 10
-16 10 -17 0 -58 2 -90 4 -32 3 -72 2 -89 -2z"></path>
<path d="M3635 2321 c-10 -18 18 -24 99 -22 97 2 148 10 140 22 -7 12 -231 12
-239 0z"></path>
<path d="M2740 2288 c0 -7 5 -20 10 -28 8 -12 10 -9 10 13 0 15 -4 27 -10 27
-5 0 -10 -6 -10 -12z"></path>
<path d="M3246 2253 c-4 -9 0 -31 8 -48 8 -16 24 -51 36 -76 23 -51 61 -74 59
-36 -1 28 -70 170 -85 174 -6 2 -15 -4 -18 -14z"></path>
<path d="M3625 2261 c-15 -26 50 -171 77 -171 24 0 23 6 -15 96 -33 76 -49 96
-62 75z"></path>
<path d="M2773 2183 c6 -50 21 -129 38 -198 24 -94 64 -366 63 -430 0 -27 -4
-59 -8 -70 -6 -18 5 -27 91 -72 72 -38 99 -57 103 -75 5 -18 13 -23 35 -23 26
0 30 3 27 25 -2 14 -7 138 -11 276 -5 187 -10 256 -20 268 -16 19 -111 22
-129 4 -7 -7 -12 -31 -12 -54 0 -24 -4 -46 -10 -49 -5 -3 -10 2 -10 13 0 10
-9 27 -19 36 -11 10 -21 36 -24 59 -5 46 -49 186 -72 230 -8 16 -15 39 -15 52
0 31 -10 55 -22 55 -6 0 -8 -19 -5 -47z"></path>
<path d="M4435 2110 c-31 -12 -4 -18 111 -23 102 -5 144 3 114 22 -17 12 -196
12 -225 1z"></path>
<path d="M4111 2101 c-27 -18 -1 -33 47 -26 25 4 74 6 109 6 34 0 63 4 63 9 0
6 -33 10 -74 10 -40 0 -86 2 -102 5 -16 3 -35 1 -43 -4z"></path>
<path d="M3758 2084 c-10 -3 -18 -9 -18 -14 0 -14 30 -18 132 -16 86 2 120 8
107 20 -7 6 -203 15 -221 10z"></path>
<path d="M3386 2071 c-3 -5 2 -11 12 -13 25 -6 222 3 222 11 0 10 -228 13
-234 2z"></path>
<path d="M3430 1933 c-69 -2 -134 -5 -145 -8 -20 -4 -20 -11 -17 -292 1 -158
4 -293 7 -300 2 -7 19 -19 37 -26 19 -8 62 -38 96 -66 47 -40 66 -50 76 -42 7
6 30 10 52 10 57 -2 273 16 280 24 3 3 -20 13 -52 22 -33 9 -76 23 -97 32 -48
21 -117 87 -138 133 -9 19 -23 47 -30 63 -19 40 -15 163 7 222 26 68 48 98
107 145 46 37 75 49 150 65 15 3 27 9 27 14 0 8 -94 9 -360 4z"></path>
<path d="M3694 1811 c-52 -32 -79 -79 -77 -133 3 -56 22 -98 59 -127 28 -22
54 -28 54 -11 0 6 -4 10 -9 10 -23 0 -51 72 -51 130 0 51 4 64 35 104 38 50
36 56 -11 27z"></path>
<path d="M3860 1826 c0 -3 13 -19 29 -37 21 -23 31 -46 36 -85 7 -60 -2 -161
-16 -170 -5 -3 -16 -20 -23 -39 -8 -18 -28 -43 -45 -56 -34 -25 -40 -39 -16
-39 25 0 91 71 121 130 39 76 45 175 15 224 -24 39 -101 93 -101 72z"></path>
<path d="M4105 989 c-99 -5 -255 -10 -346 -12 -91 -2 -170 -7 -176 -10 -6 -4
-9 -26 -6 -49 7 -71 3 -73 -164 -76 -156 -3 -193 -7 -193 -21 0 -27 432 -20
570 9 30 6 98 20 150 31 118 24 148 32 285 75 155 49 142 43 125 54 -8 6 -26
9 -40 8 -14 0 -106 -5 -205 -9z"></path>
</g>
</svg>